<?xml version="1.0" standalone="no"?><svg xmlns:xlink="http://www.w3.org/1999/xlink" xmlns="http://www.w3.org/2000/svg" viewBox="0 0 1000 928.5707462002159" preserveAspectRatio="xMaxYMax slice"><g transform="scale(0.9553196977368477)"><rect x="0" y="0" width="1121.5384615384617" height="972" fill="#10517a"/><rect x="0" y="0" width="74.76923076923077" height="74.76923076923077" fill="#10517a"/><rect x="0" y="0" width="37.38" height="37.38" fill="#072334"/><polygon points="37.38,0 37.38,37.38 0,37.38" fill="#072334"/><rect x="37.38" y="0" width="37.38" height="37.38" fill="#072334"/><polygon points="37.38,0 74.76,37.38 37.38,37.38" fill="#072334"/><rect x="0" y="37.38" width="37.38" height="37.38" fill="#072334"/><polygon points="0,37.38 37.38,37.38 0,74.76" fill="#072334"/><rect x="37.38" y="37.38" width="37.38" height="37.38" fill="#072334"/><polygon points="37.38,37.38 74.76,37.38 74.76,74.76" fill="#072334"/><rect x="74.76923076923077" y="0" width="74.76923076923077" height="74.76923076923077" fill="#10517a"/><rect x="74.77" y="0" width="37.38" height="37.38" fill="#072334"/><path d="M 74.77 37.38 A 37.38 37.38 0 0 1 112.15 0 L 112.15 9.345 A 28.035000000000004 28.035000000000004 0 0 0 84.115 37.38" fill="#072334"/><rect x="112.15" y="0" width="37.38" height="37.38" fill="#072334"/><path d="M 112.15 0 A 37.38 37.38 0 0 1 149.53 37.38 L 140.185 37.38 A 28.035000000000004 28.035000000000004 0 0 0 112.15 9.345" fill="#072334"/><rect x="74.77" y="37.38" width="37.38" height="37.38" fill="#072334"/><path d="M 74.77 37.38 A 37.38 37.38 0 0 0 112.15 74.76 L 112.15 65.415 A 28.035000000000004 28.035000000000004 0 0 1 84.115 37.38" fill="#072334"/><rect x="112.15" y="37.38" width="37.38" height="37.38" fill="#072334"/><path d="M 112.15 74.76 A 37.38 37.38 0 0 0 149.53 37.38 L 140.185 37.38 A 28.035000000000004 28.035000000000004 0 0 1 112.15 65.415" fill="#072334"/><rect x="149.54" y="0" width="74.77" height="74.77" fill="#072334"/><polygon points="149.54,0 224.31,74.77 149.54,74.77" fill="#072334"/><rect x="224.30769230769232" y="0" width="74.76923076923077" height="74.76923076923077" fill="#10517a"/><rect x="224.31" y="0" width="37.38" height="37.38" fill="#072334"/><circle cx="243" cy="18.69" r="18.69" fill="#072334"/><rect x="261.69" y="0" width="37.38" height="37.38" fill="#072334"/><rect x="261.69" y="0" width="37.38" height="37.38" fill="#072334"/><rect x="224.31" y="37.38" width="37.38" height="37.38" fill="#072334"/><circle cx="243" cy="56.07000000000001" r="18.69" fill="#072334"/><rect x="261.69" y="37.38" width="37.38" height="37.38" fill="#072334"/><rect x="261.69" y="37.38" width="37.38" height="37.38" fill="#072334"/><rect x="299.08" y="0" width="74.77" height="74.77" fill="#072334"/><path d="M 299.08 0 A 74.77 74.77 0 0 1 373.84999999999997 74.77 L 299.08 74.77" fill="#072334"/><rect x="373.85" y="0" width="74.77" height="74.77" fill="#072334"/><path d="M 373.85 74.77 A 74.77 74.77 0 0 1  448.62 0 L 448.62 74.77" fill="#072334"/><rect x="448.62" y="0" width="74.77" height="74.77" fill="#072334"/><rect x="448.62" y="0" width="74.77" height="74.77" fill="#072334"/><rect x="523.38" y="0" width="74.77" height="74.77" fill="#072334"/><polygon points="523.38,0 598.15,74.77 523.38,74.77" fill="#072334"/><rect x="598.1538461538462" y="0" width="74.76923076923077" height="74.76923076923077" fill="#10517a"/><rect x="598.15" y="0" width="37.38" height="37.38" fill="#072334"/><path d="M 598.15 0 A 37.38 37.38 0 0 1 635.53 37.38 L 598.15 37.38" fill="#072334"/><rect x="635.54" y="0" width="37.38" height="37.38" fill="#072334"/><path d="M 635.54 37.38 A 37.38 37.38 0 0 1  672.92 0 L 672.92 37.38" fill="#072334"/><rect x="598.15" y="37.38" width="37.38" height="37.38" fill="#072334"/><path d="M 598.15 74.76 A 37.38 37.38 0 0 0 635.53 37.38 L 598.15 37.38" fill="#072334"/><rect x="635.54" y="37.38" width="37.38" height="37.38" fill="#072334"/><path d="M 635.54 37.38 A 37.38 37.38 0 0 0 672.92 74.76 L 672.92 37.38" fill="#072334"/><rect x="672.9230769230769" y="0" width="74.76923076923077" height="74.76923076923077" fill="#10517a"/><rect x="672.92" y="0" width="37.38" height="37.38" fill="#072334"/><path d="M 672.92 37.38 A 37.38 37.38 0 0 1  710.3 0 L 710.3 37.38" fill="#072334"/><rect x="710.31" y="0" width="37.38" height="37.38" fill="#072334"/><path d="M 710.31 0 A 37.38 37.38 0 0 1 747.6899999999999 37.38 L 710.31 37.38" fill="#072334"/><rect x="672.92" y="37.38" width="37.38" height="37.38" fill="#072334"/><path d="M 672.92 37.38 A 37.38 37.38 0 0 0 710.3 74.76 L 710.3 37.38" fill="#072334"/><rect x="710.31" y="37.38" width="37.38" height="37.38" fill="#072334"/><path d="M 710.31 74.76 A 37.38 37.38 0 0 0 747.6899999999999 37.38 L 710.31 37.38" fill="#072334"/><rect x="747.6923076923077" y="0" width="74.76923076923077" height="74.76923076923077" fill="#10517a"/><rect x="747.69" y="0" width="37.38" height="37.38" fill="#072334"/><path d="M 747.69 37.38 A 37.38 37.38 0 0 0 785.07 0 L 747.69 0" fill="#072334"/><rect x="785.08" y="0" width="37.38" height="37.38" fill="#072334"/><path d="M 785.08 0 A 37.38 37.38 0 0 0 822.46 37.38 L 822.46 0" fill="#072334"/><rect x="747.69" y="37.38" width="37.38" height="37.38" fill="#072334"/><path d="M 747.69 37.38 A 37.38 37.38 0 0 1 785.07 74.76 L 747.69 74.76" fill="#072334"/><rect x="785.08" y="37.38" width="37.38" height="37.38" fill="#072334"/><path d="M 785.08 74.76 A 37.38 37.38 0 0 1  822.46 37.38 L 822.46 74.76" fill="#072334"/><rect x="822.4615384615386" y="0" width="74.76923076923077" height="74.76923076923077" fill="#10517a"/><rect x="822.46" y="0" width="37.38" height="37.38" fill="#072334"/><path d="M 822.46 37.38 A 37.38 37.38 0 0 1 859.84 0 L 859.84 9.345 A 28.035000000000004 28.035000000000004 0 0 0 831.8050000000001 37.38" fill="#072334"/><rect x="859.85" y="0" width="37.38" height="37.38" fill="#072334"/><path d="M 859.85 0 A 37.38 37.38 0 0 1 897.23 37.38 L 887.885 37.38 A 28.035000000000004 28.035000000000004 0 0 0 859.85 9.345" fill="#072334"/><rect x="822.46" y="37.38" width="37.38" height="37.38" fill="#072334"/><path d="M 822.46 37.38 A 37.38 37.38 0 0 0 859.84 74.76 L 859.84 65.415 A 28.035000000000004 28.035000000000004 0 0 1 831.8050000000001 37.38" fill="#072334"/><rect x="859.85" y="37.38" width="37.38" height="37.38" fill="#072334"/><path d="M 859.85 74.76 A 37.38 37.38 0 0 0 897.23 37.38 L 887.885 37.38 A 28.035000000000004 28.035000000000004 0 0 1 859.85 65.415" fill="#072334"/><rect x="897.23" y="0" width="74.77" height="74.77" fill="#072334"/><rect x="897.23" y="0" width="74.77" height="74.77" fill="#072334"/><rect x="972" y="0" width="74.76923076923077" height="74.76923076923077" fill="#10517a"/><rect x="972" y="0" width="37.38" height="37.38" fill="#072334"/><polygon points="1009.38,0 1009.38,37.38 972,37.38" fill="#072334"/><rect x="1009.38" y="0" width="37.38" height="37.38" fill="#072334"/><polygon points="1009.38,0 1046.76,37.38 1009.38,37.38" fill="#072334"/><rect x="972" y="37.38" width="37.38" height="37.38" fill="#072334"/><polygon points="972,37.38 1009.38,37.38 1009.38,74.76" fill="#072334"/><rect x="1009.38" y="37.38" width="37.38" height="37.38" fill="#072334"/><polygon points="1009.38,37.38 1046.76,37.38 1009.38,74.76" fill="#072334"/><rect x="1046.769230769231" y="0" width="74.76923076923077" height="74.76923076923077" fill="#10517a"/><rect x="1046.77" y="0" width="37.38" height="37.38" fill="#072334"/><path d="M 1046.77 37.38 A 37.38 37.38 0 0 1  1084.15 0 L 1084.15 37.38" fill="#072334"/><rect x="1084.15" y="0" width="37.38" height="37.38" fill="#072334"/><path d="M 1084.15 0 A 37.38 37.38 0 0 1 1121.5300000000002 37.38 L 1084.15 37.38" fill="#072334"/><rect x="1046.77" y="37.38" width="37.38" height="37.38" fill="#072334"/><path d="M 1046.77 37.38 A 37.38 37.38 0 0 0 1084.15 74.76 L 1084.15 37.38" fill="#072334"/><rect x="1084.15" y="37.38" width="37.38" height="37.38" fill="#072334"/><path d="M 1084.15 74.76 A 37.38 37.38 0 0 0 1121.5300000000002 37.38 L 1084.15 37.38" fill="#072334"/><rect x="0" y="74.77" width="74.77" height="74.77" fill="#072334"/><polygon points="0,74.77 74.77,74.77 0,149.54" fill="#072334"/><rect x="74.76923076923077" y="74.76923076923077" width="74.76923076923077" height="74.76923076923077" fill="#10517a"/><rect x="74.77" y="74.77" width="37.38" height="37.38" fill="#072334"/><path d="M 74.77 112.15 A 37.38 37.38 0 0 1  112.15 74.77 L 112.15 112.15" fill="#072334"/><rect x="112.15" y="74.77" width="37.38" height="37.38" fill="#072334"/><path d="M 112.15 74.77 A 37.38 37.38 0 0 1 149.53 112.15 L 112.15 112.15" fill="#072334"/><rect x="74.77" y="112.15" width="37.38" height="37.38" fill="#072334"/><path d="M 74.77 112.15 A 37.38 37.38 0 0 0 112.15 149.53 L 112.15 112.15" fill="#072334"/><rect x="112.15" y="112.15" width="37.38" height="37.38" fill="#072334"/><path d="M 112.15 149.53 A 37.38 37.38 0 0 0 149.53 112.15 L 112.15 112.15" fill="#072334"/><rect x="149.53846153846155" y="74.76923076923077" width="74.76923076923077" height="74.76923076923077" fill="#10517a"/><rect x="149.54" y="74.77" width="37.38" height="37.38" fill="#072334"/><polygon points="186.92,74.77 186.92,112.15 149.54,112.15" fill="#072334"/><rect x="186.92" y="74.77" width="37.38" height="37.38" fill="#072334"/><polygon points="186.92,74.77 224.29999999999998,74.77 186.92,112.15" fill="#072334"/><rect x="149.54" y="112.15" width="37.38" height="37.38" fill="#072334"/><polygon points="149.54,112.15 186.92,112.15 186.92,149.53" fill="#072334"/><rect x="186.92" y="112.15" width="37.38" height="37.38" fill="#072334"/><polygon points="186.92,112.15 224.29999999999998,149.53 186.92,149.53" fill="#072334"/><rect x="224.31" y="74.77" width="74.77" height="74.77" fill="#072334"/><rect x="224.31" y="74.77" width="74.77" height="74.77" fill="#072334"/><rect x="299.0769230769231" y="74.76923076923077" width="74.76923076923077" height="74.76923076923077" fill="#10517a"/><rect x="299.08" y="74.77" width="37.38" height="37.38" fill="#072334"/><path d="M 299.08 74.77 A 37.38 37.38 0 0 1 336.46 112.15 L 299.08 112.15" fill="#072334"/><rect x="336.46" y="74.77" width="37.38" height="37.38" fill="#072334"/><path d="M 336.46 112.15 A 37.38 37.38 0 0 1  373.84 74.77 L 373.84 112.15" fill="#072334"/><rect x="299.08" y="112.15" width="37.38" height="37.38" fill="#072334"/><path d="M 299.08 149.53 A 37.38 37.38 0 0 0 336.46 112.15 L 299.08 112.15" fill="#072334"/><rect x="336.46" y="112.15" width="37.38" height="37.38" fill="#072334"/><path d="M 336.46 112.15 A 37.38 37.38 0 0 0 373.84 149.53 L 373.84 112.15" fill="#072334"/><rect x="373.85" y="74.77" width="74.77" height="74.77" fill="#072334"/><rect x="373.85" y="74.77" width="74.77" height="74.77" fill="#072334"/><rect x="448.61538461538464" y="74.76923076923077" width="74.76923076923077" height="74.76923076923077" fill="#10517a"/><rect x="448.62" y="74.77" width="37.38" height="37.38" fill="#072334"/><circle cx="467.31" cy="93.46" r="18.69" fill="#072334"/><rect x="486" y="74.77" width="37.38" height="37.38" fill="#072334"/><rect x="486" y="74.77" width="37.38" height="37.38" fill="#072334"/><rect x="448.62" y="112.15" width="37.38" height="37.38" fill="#072334"/><circle cx="467.31" cy="130.84" r="18.69" fill="#072334"/><rect x="486" y="112.15" width="37.38" height="37.38" fill="#072334"/><rect x="486" y="112.15" width="37.38" height="37.38" fill="#072334"/><rect x="523.3846153846155" y="74.76923076923077" width="74.76923076923077" height="74.76923076923077" fill="#10517a"/><rect x="523.38" y="74.77" width="37.38" height="37.38" fill="#072334"/><circle cx="542.07" cy="93.46" r="18.69" fill="#072334"/><rect x="560.77" y="74.77" width="37.38" height="37.38" fill="#072334"/><rect x="560.77" y="74.77" width="37.38" height="37.38" fill="#072334"/><rect x="523.38" y="112.15" width="37.38" height="37.38" fill="#072334"/><circle cx="542.07" cy="130.84" r="18.69" fill="#072334"/><rect x="560.77" y="112.15" width="37.38" height="37.38" fill="#072334"/><rect x="560.77" y="112.15" width="37.38" height="37.38" fill="#072334"/><rect x="598.1538461538462" y="74.76923076923077" width="74.76923076923077" height="74.76923076923077" fill="#10517a"/><rect x="598.15" y="74.77" width="37.38" height="37.38" fill="#072334"/><path d="M 598.15 74.77 A 37.38 37.38 0 0 0 635.53 112.15 L 635.53 74.77" fill="#072334"/><rect x="635.54" y="74.77" width="37.38" height="37.38" fill="#072334"/><path d="M 635.54 112.15 A 37.38 37.38 0 0 0 672.92 74.77 L 635.54 74.77" fill="#072334"/><rect x="598.15" y="112.15" width="37.38" height="37.38" fill="#072334"/><path d="M 598.15 149.53 A 37.38 37.38 0 0 1  635.53 112.15 L 635.53 149.53" fill="#072334"/><rect x="635.54" y="112.15" width="37.38" height="37.38" fill="#072334"/><path d="M 635.54 112.15 A 37.38 37.38 0 0 1 672.92 149.53 L 635.54 149.53" fill="#072334"/><rect x="672.9230769230769" y="74.76923076923077" width="74.76923076923077" height="74.76923076923077" fill="#10517a"/><rect x="672.92" y="74.77" width="37.38" height="37.38" fill="#072334"/><path d="M 672.92 74.77 A 37.38 37.38 0 0 0 710.3 112.15 L 710.3 74.77" fill="#072334"/><rect x="710.31" y="74.77" width="37.38" height="37.38" fill="#072334"/><path d="M 710.31 112.15 A 37.38 37.38 0 0 0 747.6899999999999 74.77 L 710.31 74.77" fill="#072334"/><rect x="672.92" y="112.15" width="37.38" height="37.38" fill="#072334"/><path d="M 672.92 149.53 A 37.38 37.38 0 0 1  710.3 112.15 L 710.3 149.53" fill="#072334"/><rect x="710.31" y="112.15" width="37.38" height="37.38" fill="#072334"/><path d="M 710.31 112.15 A 37.38 37.38 0 0 1 747.6899999999999 149.53 L 710.31 149.53" fill="#072334"/><rect x="747.69" y="74.77" width="74.77" height="74.77" fill="#072334"/><path d="M 747.69 149.54 A 74.77 74.77 0 0 0 822.46 74.77 L 747.69 74.77" fill="#072334"/><rect x="822.4615384615386" y="74.76923076923077" width="74.76923076923077" height="74.76923076923077" fill="#10517a"/><rect x="822.46" y="74.77" width="37.38" height="37.38" fill="#072334"/><polygon points="859.84,74.77 859.84,112.15 822.46,112.15" fill="#072334"/><rect x="859.85" y="74.77" width="37.38" height="37.38" fill="#072334"/><polygon points="859.85,74.77 897.23,112.15 859.85,112.15" fill="#072334"/><rect x="822.46" y="112.15" width="37.38" height="37.38" fill="#072334"/><polygon points="822.46,112.15 859.84,112.15 859.84,149.53" fill="#072334"/><rect x="859.85" y="112.15" width="37.38" height="37.38" fill="#072334"/><polygon points="859.85,112.15 897.23,112.15 859.85,149.53" fill="#072334"/><rect x="897.2307692307693" y="74.76923076923077" width="74.76923076923077" height="74.76923076923077" fill="#10517a"/><rect x="897.23" y="74.77" width="37.38" height="37.38" fill="#072334"/><path d="M 897.23 74.77 A 37.38 37.38 0 0 0 934.61 112.15 L 934.61 74.77" fill="#072334"/><rect x="934.62" y="74.77" width="37.38" height="37.38" fill="#072334"/><path d="M 934.62 112.15 A 37.38 37.38 0 0 0 972 74.77 L 934.62 74.77" fill="#072334"/><rect x="897.23" y="112.15" width="37.38" height="37.38" fill="#072334"/><path d="M 897.23 149.53 A 37.38 37.38 0 0 1  934.61 112.15 L 934.61 149.53" fill="#072334"/><rect x="934.62" y="112.15" width="37.38" height="37.38" fill="#072334"/><path d="M 934.62 112.15 A 37.38 37.38 0 0 1 972 149.53 L 934.62 149.53" fill="#072334"/><rect x="972" y="74.76923076923077" width="74.76923076923077" height="74.76923076923077" fill="#10517a"/><rect x="972" y="74.77" width="37.38" height="37.38" fill="#072334"/><path d="M 972 112.15 A 37.38 37.38 0 0 0 1009.38 74.77 L 972 74.77" fill="#072334"/><rect x="1009.38" y="74.77" width="37.38" height="37.38" fill="#072334"/><path d="M 1009.38 74.77 A 37.38 37.38 0 0 0 1046.76 112.15 L 1046.76 74.77" fill="#072334"/><rect x="972" y="112.15" width="37.38" height="37.38" fill="#072334"/><path d="M 972 112.15 A 37.38 37.38 0 0 1 1009.38 149.53 L 972 149.53" fill="#072334"/><rect x="1009.38" y="112.15" width="37.38" height="37.38" fill="#072334"/><path d="M 1009.38 149.53 A 37.38 37.38 0 0 1  1046.76 112.15 L 1046.76 149.53" fill="#072334"/><rect x="1046.77" y="74.77" width="74.77" height="74.77" fill="#072334"/><polygon points="1046.77,74.77 1121.54,74.77 1121.54,149.54" fill="#072334"/><rect x="0" y="149.53846153846155" width="74.76923076923077" height="74.76923076923077" fill="#10517a"/><rect x="0" y="149.54" width="37.38" height="37.38" fill="#072334"/><polygon points="37.38,149.54 37.38,186.92 0,186.92" fill="#072334"/><rect x="37.38" y="149.54" width="37.38" height="37.38" fill="#072334"/><polygon points="37.38,149.54 74.76,149.54 37.38,186.92" fill="#072334"/><rect x="0" y="186.92" width="37.38" height="37.38" fill="#072334"/><polygon points="0,186.92 37.38,186.92 37.38,224.29999999999998" fill="#072334"/><rect x="37.38" y="186.92" width="37.38" height="37.38" fill="#072334"/><polygon points="37.38,186.92 74.76,224.29999999999998 37.38,224.29999999999998" fill="#072334"/><rect x="74.76923076923077" y="149.53846153846155" width="74.76923076923077" height="74.76923076923077" fill="#10517a"/><rect x="74.77" y="149.54" width="37.38" height="37.38" fill="#072334"/><path d="M 74.77 186.92 A 37.38 37.38 0 0 0 112.15 149.54 L 74.77 149.54" fill="#072334"/><rect x="112.15" y="149.54" width="37.38" height="37.38" fill="#072334"/><path d="M 112.15 149.54 A 37.38 37.38 0 0 0 149.53 186.92 L 149.53 149.54" fill="#072334"/><rect x="74.77" y="186.92" width="37.38" height="37.38" fill="#072334"/><path d="M 74.77 186.92 A 37.38 37.38 0 0 1 112.15 224.29999999999998 L 74.77 224.29999999999998" fill="#072334"/><rect x="112.15" y="186.92" width="37.38" height="37.38" fill="#072334"/><path d="M 112.15 224.29999999999998 A 37.38 37.38 0 0 1  149.53 186.92 L 149.53 224.29999999999998" fill="#072334"/><rect x="149.54" y="149.54" width="74.77" height="74.77" fill="#072334"/><path d="M 149.54 149.54 A 74.77 74.77 0 0 0 224.31 224.31 L 224.31 149.54" fill="#072334"/><rect x="224.30769230769232" y="149.53846153846155" width="74.76923076923077" height="74.76923076923077" fill="#10517a"/><rect x="224.31" y="149.54" width="37.38" height="37.38" fill="#072334"/><circle cx="243" cy="168.23" r="18.69" fill="#072334"/><rect x="261.69" y="149.54" width="37.38" height="37.38" fill="#072334"/><rect x="261.69" y="149.54" width="37.38" height="37.38" fill="#072334"/><rect x="224.31" y="186.92" width="37.38" height="37.38" fill="#072334"/><circle cx="243" cy="205.60999999999999" r="18.69" fill="#072334"/><rect x="261.69" y="186.92" width="37.38" height="37.38" fill="#072334"/><rect x="261.69" y="186.92" width="37.38" height="37.38" fill="#072334"/><rect x="299.08" y="149.54" width="74.77" height="74.77" fill="#072334"/><rect x="299.08" y="149.54" width="74.77" height="74.77" fill="#072334"/><rect x="373.84615384615387" y="149.53846153846155" width="74.76923076923077" height="74.76923076923077" fill="#10517a"/><rect x="373.85" y="149.54" width="37.38" height="37.38" fill="#072334"/><path d="M 373.85 149.54 A 37.38 37.38 0 0 0 411.23 186.92 L 411.23 149.54" fill="#072334"/><rect x="411.23" y="149.54" width="37.38" height="37.38" fill="#072334"/><path d="M 411.23 186.92 A 37.38 37.38 0 0 0 448.61 149.54 L 411.23 149.54" fill="#072334"/><rect x="373.85" y="186.92" width="37.38" height="37.38" fill="#072334"/><path d="M 373.85 224.29999999999998 A 37.38 37.38 0 0 1  411.23 186.92 L 411.23 224.29999999999998" fill="#072334"/><rect x="411.23" y="186.92" width="37.38" height="37.38" fill="#072334"/><path d="M 411.23 186.92 A 37.38 37.38 0 0 1 448.61 224.29999999999998 L 411.23 224.29999999999998" fill="#072334"/><rect x="448.62" y="149.54" width="74.77" height="74.77" fill="#072334"/><rect x="448.62" y="149.54" width="74.77" height="74.77" fill="#072334"/><rect x="523.3846153846155" y="149.53846153846155" width="74.76923076923077" height="74.76923076923077" fill="#10517a"/><rect x="523.38" y="149.54" width="37.38" height="37.38" fill="#072334"/><polygon points="560.76,149.54 560.76,186.92 523.38,186.92" fill="#072334"/><rect x="560.77" y="149.54" width="37.38" height="37.38" fill="#072334"/><polygon points="560.77,149.54 598.15,186.92 560.77,186.92" fill="#072334"/><rect x="523.38" y="186.92" width="37.38" height="37.38" fill="#072334"/><polygon points="523.38,186.92 560.76,186.92 523.38,224.29999999999998" fill="#072334"/><rect x="560.77" y="186.92" width="37.38" height="37.38" fill="#072334"/><polygon points="560.77,186.92 598.15,186.92 598.15,224.29999999999998" fill="#072334"/><rect x="598.1538461538462" y="149.53846153846155" width="74.76923076923077" height="74.76923076923077" fill="#10517a"/><rect x="598.15" y="149.54" width="37.38" height="37.38" fill="#072334"/><path d="M 598.15 149.54 A 37.38 37.38 0 0 0 635.53 186.92 L 635.53 149.54" fill="#072334"/><rect x="635.54" y="149.54" width="37.38" height="37.38" fill="#072334"/><path d="M 635.54 186.92 A 37.38 37.38 0 0 0 672.92 149.54 L 635.54 149.54" fill="#072334"/><rect x="598.15" y="186.92" width="37.38" height="37.38" fill="#072334"/><path d="M 598.15 224.29999999999998 A 37.38 37.38 0 0 1  635.53 186.92 L 635.53 224.29999999999998" fill="#072334"/><rect x="635.54" y="186.92" width="37.38" height="37.38" fill="#072334"/><path d="M 635.54 186.92 A 37.38 37.38 0 0 1 672.92 224.29999999999998 L 635.54 224.29999999999998" fill="#072334"/><rect x="672.92" y="149.54" width="74.77" height="74.77" fill="#072334"/><rect x="672.92" y="149.54" width="74.77" height="74.77" fill="#072334"/><rect x="747.6923076923077" y="149.53846153846155" width="74.76923076923077" height="74.76923076923077" fill="#10517a"/><rect x="747.69" y="149.54" width="37.38" height="37.38" fill="#072334"/><polygon points="785.07,149.54 785.07,186.92 747.69,186.92" fill="#072334"/><rect x="785.08" y="149.54" width="37.38" height="37.38" fill="#072334"/><polygon points="785.08,149.54 822.46,186.92 785.08,186.92" fill="#072334"/><rect x="747.69" y="186.92" width="37.38" height="37.38" fill="#072334"/><polygon points="747.69,186.92 785.07,186.92 785.07,224.29999999999998" fill="#072334"/><rect x="785.08" y="186.92" width="37.38" height="37.38" fill="#072334"/><polygon points="785.08,186.92 822.46,186.92 785.08,224.29999999999998" fill="#072334"/><rect x="822.4615384615386" y="149.53846153846155" width="74.76923076923077" height="74.76923076923077" fill="#10517a"/><rect x="822.46" y="149.54" width="37.38" height="37.38" fill="#072334"/><path d="M 822.46 149.54 A 37.38 37.38 0 0 0 859.84 186.92 L 859.84 149.54" fill="#072334"/><rect x="859.85" y="149.54" width="37.38" height="37.38" fill="#072334"/><path d="M 859.85 186.92 A 37.38 37.38 0 0 0 897.23 149.54 L 859.85 149.54" fill="#072334"/><rect x="822.46" y="186.92" width="37.38" height="37.38" fill="#072334"/><path d="M 822.46 224.29999999999998 A 37.38 37.38 0 0 1  859.84 186.92 L 859.84 224.29999999999998" fill="#072334"/><rect x="859.85" y="186.92" width="37.38" height="37.38" fill="#072334"/><path d="M 859.85 186.92 A 37.38 37.38 0 0 1 897.23 224.29999999999998 L 859.85 224.29999999999998" fill="#072334"/><rect x="897.2307692307693" y="149.53846153846155" width="74.76923076923077" height="74.76923076923077" fill="#10517a"/><rect x="897.23" y="149.54" width="37.38" height="37.38" fill="#072334"/><path d="M 897.23 186.92 A 37.38 37.38 0 0 0 934.61 149.54 L 897.23 149.54" fill="#072334"/><rect x="934.62" y="149.54" width="37.38" height="37.38" fill="#072334"/><path d="M 934.62 149.54 A 37.38 37.38 0 0 0 972 186.92 L 972 149.54" fill="#072334"/><rect x="897.23" y="186.92" width="37.38" height="37.38" fill="#072334"/><path d="M 897.23 186.92 A 37.38 37.38 0 0 1 934.61 224.29999999999998 L 897.23 224.29999999999998" fill="#072334"/><rect x="934.62" y="186.92" width="37.38" height="37.38" fill="#072334"/><path d="M 934.62 224.29999999999998 A 37.38 37.38 0 0 1  972 186.92 L 972 224.29999999999998" fill="#072334"/><rect x="972" y="149.53846153846155" width="74.76923076923077" height="74.76923076923077" fill="#10517a"/><rect x="972" y="149.54" width="37.38" height="37.38" fill="#072334"/><path d="M 972 186.92 A 37.38 37.38 0 0 1 1009.38 149.54 L 1009.38 158.885 A 28.035000000000004 28.035000000000004 0 0 0 981.345 186.92" fill="#072334"/><rect x="1009.38" y="149.54" width="37.38" height="37.38" fill="#072334"/><path d="M 1009.38 149.54 A 37.38 37.38 0 0 1 1046.76 186.92 L 1037.415 186.92 A 28.035000000000004 28.035000000000004 0 0 0 1009.38 158.885" fill="#072334"/><rect x="972" y="186.92" width="37.38" height="37.38" fill="#072334"/><path d="M 972 186.92 A 37.38 37.38 0 0 0 1009.38 224.29999999999998 L 1009.38 214.95499999999998 A 28.035000000000004 28.035000000000004 0 0 1 981.345 186.92" fill="#072334"/><rect x="1009.38" y="186.92" width="37.38" height="37.38" fill="#072334"/><path d="M 1009.38 224.29999999999998 A 37.38 37.38 0 0 0 1046.76 186.92 L 1037.415 186.92 A 28.035000000000004 28.035000000000004 0 0 1 1009.38 214.95499999999998" fill="#072334"/><rect x="1046.769230769231" y="149.53846153846155" width="74.76923076923077" height="74.76923076923077" fill="#10517a"/><rect x="1046.77" y="149.54" width="37.38" height="37.38" fill="#072334"/><polygon points="1084.15,149.54 1084.15,186.92 1046.77,186.92" fill="#072334"/><rect x="1084.15" y="149.54" width="37.38" height="37.38" fill="#072334"/><polygon points="1084.15,149.54 1121.5300000000002,186.92 1084.15,186.92" fill="#072334"/><rect x="1046.77" y="186.92" width="37.38" height="37.38" fill="#072334"/><polygon points="1046.77,186.92 1084.15,186.92 1084.15,224.29999999999998" fill="#072334"/><rect x="1084.15" y="186.92" width="37.38" height="37.38" fill="#072334"/><polygon points="1084.15,186.92 1121.5300000000002,186.92 1084.15,224.29999999999998" fill="#072334"/><rect x="0" y="224.31" width="74.77" height="74.77" fill="#072334"/><polygon points="0,224.31 74.77,224.31 0,299.08" fill="#072334"/><rect x="74.76923076923077" y="224.30769230769232" width="74.76923076923077" height="74.76923076923077" fill="#10517a"/><rect x="74.77" y="224.31" width="37.38" height="37.38" fill="#072334"/><path d="M 74.77 261.69 A 37.38 37.38 0 0 1 112.15 224.31 L 112.15 233.655 A 28.035000000000004 28.035000000000004 0 0 0 84.115 261.69" fill="#072334"/><rect x="112.15" y="224.31" width="37.38" height="37.38" fill="#072334"/><path d="M 112.15 224.31 A 37.38 37.38 0 0 1 149.53 261.69 L 140.185 261.69 A 28.035000000000004 28.035000000000004 0 0 0 112.15 233.655" fill="#072334"/><rect x="74.77" y="261.69" width="37.38" height="37.38" fill="#072334"/><path d="M 74.77 261.69 A 37.38 37.38 0 0 0 112.15 299.07 L 112.15 289.725 A 28.035000000000004 28.035000000000004 0 0 1 84.115 261.69" fill="#072334"/><rect x="112.15" y="261.69" width="37.38" height="37.38" fill="#072334"/><path d="M 112.15 299.07 A 37.38 37.38 0 0 0 149.53 261.69 L 140.185 261.69 A 28.035000000000004 28.035000000000004 0 0 1 112.15 289.725" fill="#072334"/><rect x="149.54" y="224.31" width="74.77" height="74.77" fill="#072334"/><polygon points="149.54,224.31 224.31,299.08 149.54,299.08" fill="#072334"/><rect x="224.31" y="224.31" width="74.77" height="74.77" fill="#072334"/><rect x="224.31" y="224.31" width="74.77" height="74.77" fill="#072334"/><rect x="299.08" y="224.31" width="74.77" height="74.77" fill="#072334"/><rect x="299.08" y="224.31" width="74.77" height="74.77" fill="#072334"/><rect x="373.84615384615387" y="224.30769230769232" width="74.76923076923077" height="74.76923076923077" fill="#10517a"/><rect x="373.85" y="224.31" width="37.38" height="37.38" fill="#072334"/><path d="M 373.85 261.69 A 37.38 37.38 0 0 1  411.23 224.31 L 411.23 261.69" fill="#072334"/><rect x="411.23" y="224.31" width="37.38" height="37.38" fill="#072334"/><path d="M 411.23 224.31 A 37.38 37.38 0 0 1 448.61 261.69 L 411.23 261.69" fill="#072334"/><rect x="373.85" y="261.69" width="37.38" height="37.38" fill="#072334"/><path d="M 373.85 261.69 A 37.38 37.38 0 0 0 411.23 299.07 L 411.23 261.69" fill="#072334"/><rect x="411.23" y="261.69" width="37.38" height="37.38" fill="#072334"/><path d="M 411.23 299.07 A 37.38 37.38 0 0 0 448.61 261.69 L 411.23 261.69" fill="#072334"/><rect x="448.61538461538464" y="224.30769230769232" width="74.76923076923077" height="74.76923076923077" fill="#10517a"/><rect x="448.62" y="224.31" width="37.38" height="37.38" fill="#072334"/><circle cx="467.31" cy="243" r="18.69" fill="#072334"/><rect x="486" y="224.31" width="37.38" height="37.38" fill="#072334"/><rect x="486" y="224.31" width="37.38" height="37.38" fill="#072334"/><rect x="448.62" y="261.69" width="37.38" height="37.38" fill="#072334"/><circle cx="467.31" cy="280.38" r="18.69" fill="#072334"/><rect x="486" y="261.69" width="37.38" height="37.38" fill="#072334"/><rect x="486" y="261.69" width="37.38" height="37.38" fill="#072334"/><rect x="523.38" y="224.31" width="74.77" height="74.77" fill="#072334"/><path d="M 523.38 224.31 A 74.77 74.77 0 0 0 598.15 299.08 L 598.15 224.31" fill="#072334"/><rect x="598.1538461538462" y="224.30769230769232" width="74.76923076923077" height="74.76923076923077" fill="#10517a"/><rect x="598.15" y="224.31" width="37.38" height="37.38" fill="#072334"/><polygon points="635.53,224.31 635.53,261.69 598.15,261.69" fill="#072334"/><rect x="635.54" y="224.31" width="37.38" height="37.38" fill="#072334"/><polygon points="635.54,224.31 672.92,261.69 635.54,261.69" fill="#072334"/><rect x="598.15" y="261.69" width="37.38" height="37.38" fill="#072334"/><polygon points="598.15,261.69 635.53,261.69 635.53,299.07" fill="#072334"/><rect x="635.54" y="261.69" width="37.38" height="37.38" fill="#072334"/><polygon points="635.54,261.69 672.92,261.69 635.54,299.07" fill="#072334"/><rect x="672.9230769230769" y="224.30769230769232" width="74.76923076923077" height="74.76923076923077" fill="#10517a"/><rect x="672.92" y="224.31" width="37.38" height="37.38" fill="#072334"/><circle cx="691.61" cy="243" r="18.69" fill="#072334"/><rect x="710.31" y="224.31" width="37.38" height="37.38" fill="#072334"/><rect x="710.31" y="224.31" width="37.38" height="37.38" fill="#072334"/><rect x="672.92" y="261.69" width="37.38" height="37.38" fill="#072334"/><circle cx="691.61" cy="280.38" r="18.69" fill="#072334"/><rect x="710.31" y="261.69" width="37.38" height="37.38" fill="#072334"/><rect x="710.31" y="261.69" width="37.38" height="37.38" fill="#072334"/><rect x="747.69" y="224.31" width="74.77" height="74.77" fill="#072334"/><rect x="747.69" y="224.31" width="74.77" height="74.77" fill="#072334"/><rect x="822.4615384615386" y="224.30769230769232" width="74.76923076923077" height="74.76923076923077" fill="#10517a"/><rect x="822.46" y="224.31" width="37.38" height="37.38" fill="#072334"/><polygon points="859.84,224.31 859.84,261.69 822.46,261.69" fill="#072334"/><rect x="859.85" y="224.31" width="37.38" height="37.38" fill="#072334"/><polygon points="859.85,224.31 897.23,261.69 859.85,261.69" fill="#072334"/><rect x="822.46" y="261.69" width="37.38" height="37.38" fill="#072334"/><polygon points="822.46,261.69 859.84,261.69 859.84,299.07" fill="#072334"/><rect x="859.85" y="261.69" width="37.38" height="37.38" fill="#072334"/><polygon points="859.85,261.69 897.23,261.69 859.85,299.07" fill="#072334"/><rect x="897.23" y="224.31" width="74.77" height="74.77" fill="#072334"/><path d="M 897.23 224.31 A 74.77 74.77 0 0 0 972 299.08 L 972 224.31" fill="#072334"/><rect x="972" y="224.31" width="74.77" height="74.77" fill="#072334"/><rect x="972" y="224.31" width="74.77" height="74.77" fill="#072334"/><rect x="1046.77" y="224.31" width="74.77" height="74.77" fill="#072334"/><polygon points="1046.77,224.31 1121.54,299.08 1046.77,299.08" fill="#072334"/><rect x="0" y="299.08" width="74.77" height="74.77" fill="#072334"/><path d="M 0 373.84999999999997 A 74.77 74.77 0 0 1  74.77 299.08 L 0 373.84999999999997 A 74.77 74.77 0 0 0 74.77 299.08" fill="#072334"/><rect x="74.77" y="299.08" width="74.77" height="74.77" fill="#072334"/><path d="M 74.77 373.84999999999997 A 74.77 74.77 0 0 0 149.54 299.08 L 74.77 299.08" fill="#072334"/><rect x="149.54" y="299.08" width="74.77" height="74.77" fill="#072334"/><rect x="149.54" y="299.08" width="74.77" height="74.77" fill="#072334"/><rect x="224.31" y="299.08" width="74.77" height="74.77" fill="#072334"/><rect x="224.31" y="299.08" width="74.77" height="74.77" fill="#072334"/><rect x="299.08" y="299.08" width="74.77" height="74.77" fill="#072334"/><rect x="299.08" y="299.08" width="74.77" height="74.77" fill="#072334"/><rect x="373.85" y="299.08" width="74.77" height="74.77" fill="#072334"/><rect x="373.85" y="299.08" width="74.77" height="74.77" fill="#072334"/><rect x="448.61538461538464" y="299.0769230769231" width="74.76923076923077" height="74.76923076923077" fill="#10517a"/><rect x="448.62" y="299.08" width="37.38" height="37.38" fill="#072334"/><path d="M 448.62 299.08 A 37.38 37.38 0 0 0 486 336.46 L 486 299.08" fill="#072334"/><rect x="486" y="299.08" width="37.38" height="37.38" fill="#072334"/><path d="M 486 336.46 A 37.38 37.38 0 0 0 523.38 299.08 L 486 299.08" fill="#072334"/><rect x="448.62" y="336.46" width="37.38" height="37.38" fill="#072334"/><path d="M 448.62 373.84 A 37.38 37.38 0 0 1  486 336.46 L 486 373.84" fill="#072334"/><rect x="486" y="336.46" width="37.38" height="37.38" fill="#072334"/><path d="M 486 336.46 A 37.38 37.38 0 0 1 523.38 373.84 L 486 373.84" fill="#072334"/><rect x="523.3846153846155" y="299.0769230769231" width="74.76923076923077" height="74.76923076923077" fill="#10517a"/><rect x="523.38" y="299.08" width="37.38" height="37.38" fill="#072334"/><path d="M 523.38 299.08 A 37.38 37.38 0 0 0 560.76 336.46 L 560.76 299.08" fill="#072334"/><rect x="560.77" y="299.08" width="37.38" height="37.38" fill="#072334"/><path d="M 560.77 336.46 A 37.38 37.38 0 0 0 598.15 299.08 L 560.77 299.08" fill="#072334"/><rect x="523.38" y="336.46" width="37.38" height="37.38" fill="#072334"/><path d="M 523.38 373.84 A 37.38 37.38 0 0 1  560.76 336.46 L 560.76 373.84" fill="#072334"/><rect x="560.77" y="336.46" width="37.38" height="37.38" fill="#072334"/><path d="M 560.77 336.46 A 37.38 37.38 0 0 1 598.15 373.84 L 560.77 373.84" fill="#072334"/><rect x="598.1538461538462" y="299.0769230769231" width="74.76923076923077" height="74.76923076923077" fill="#10517a"/><rect x="598.15" y="299.08" width="37.38" height="37.38" fill="#072334"/><polygon points="635.53,299.08 635.53,336.46 598.15,336.46" fill="#072334"/><rect x="635.54" y="299.08" width="37.38" height="37.38" fill="#072334"/><polygon points="635.54,299.08 672.92,299.08 635.54,336.46" fill="#072334"/><rect x="598.15" y="336.46" width="37.38" height="37.38" fill="#072334"/><polygon points="598.15,336.46 635.53,336.46 635.53,373.84" fill="#072334"/><rect x="635.54" y="336.46" width="37.38" height="37.38" fill="#072334"/><polygon points="635.54,336.46 672.92,373.84 635.54,373.84" fill="#072334"/><rect x="672.9230769230769" y="299.0769230769231" width="74.76923076923077" height="74.76923076923077" fill="#10517a"/><rect x="672.92" y="299.08" width="37.38" height="37.38" fill="#072334"/><polygon points="710.3,299.08 710.3,336.46 672.92,336.46" fill="#072334"/><rect x="710.31" y="299.08" width="37.38" height="37.38" fill="#072334"/><polygon points="710.31,299.08 747.6899999999999,336.46 710.31,336.46" fill="#072334"/><rect x="672.92" y="336.46" width="37.38" height="37.38" fill="#072334"/><polygon points="672.92,336.46 710.3,336.46 710.3,373.84" fill="#072334"/><rect x="710.31" y="336.46" width="37.38" height="37.38" fill="#072334"/><polygon points="710.31,336.46 747.6899999999999,336.46 710.31,373.84" fill="#072334"/><rect x="747.6923076923077" y="299.0769230769231" width="74.76923076923077" height="74.76923076923077" fill="#10517a"/><rect x="747.69" y="299.08" width="37.38" height="37.38" fill="#072334"/><polygon points="785.07,299.08 785.07,336.46 747.69,336.46" fill="#072334"/><rect x="785.08" y="299.08" width="37.38" height="37.38" fill="#072334"/><polygon points="785.08,299.08 822.46,336.46 785.08,336.46" fill="#072334"/><rect x="747.69" y="336.46" width="37.38" height="37.38" fill="#072334"/><polygon points="747.69,336.46 785.07,336.46 785.07,373.84" fill="#072334"/><rect x="785.08" y="336.46" width="37.38" height="37.38" fill="#072334"/><polygon points="785.08,336.46 822.46,336.46 785.08,373.84" fill="#072334"/><rect x="822.4615384615386" y="299.0769230769231" width="74.76923076923077" height="74.76923076923077" fill="#10517a"/><rect x="822.46" y="299.08" width="37.38" height="37.38" fill="#072334"/><path d="M 822.46 336.46 A 37.38 37.38 0 0 1  859.84 299.08 L 859.84 336.46" fill="#072334"/><rect x="859.85" y="299.08" width="37.38" height="37.38" fill="#072334"/><path d="M 859.85 299.08 A 37.38 37.38 0 0 1 897.23 336.46 L 859.85 336.46" fill="#072334"/><rect x="822.46" y="336.46" width="37.38" height="37.38" fill="#072334"/><path d="M 822.46 336.46 A 37.38 37.38 0 0 0 859.84 373.84 L 859.84 336.46" fill="#072334"/><rect x="859.85" y="336.46" width="37.38" height="37.38" fill="#072334"/><path d="M 859.85 373.84 A 37.38 37.38 0 0 0 897.23 336.46 L 859.85 336.46" fill="#072334"/><rect x="897.2307692307693" y="299.0769230769231" width="74.76923076923077" height="74.76923076923077" fill="#10517a"/><rect x="897.23" y="299.08" width="37.38" height="37.38" fill="#072334"/><path d="M 897.23 299.08 A 37.38 37.38 0 0 0 934.61 336.46 L 934.61 299.08" fill="#072334"/><rect x="934.62" y="299.08" width="37.38" height="37.38" fill="#072334"/><path d="M 934.62 336.46 A 37.38 37.38 0 0 0 972 299.08 L 934.62 299.08" fill="#072334"/><rect x="897.23" y="336.46" width="37.38" height="37.38" fill="#072334"/><path d="M 897.23 373.84 A 37.38 37.38 0 0 1  934.61 336.46 L 934.61 373.84" fill="#072334"/><rect x="934.62" y="336.46" width="37.38" height="37.38" fill="#072334"/><path d="M 934.62 336.46 A 37.38 37.38 0 0 1 972 373.84 L 934.62 373.84" fill="#072334"/><rect x="972" y="299.0769230769231" width="74.76923076923077" height="74.76923076923077" fill="#10517a"/><rect x="972" y="299.08" width="37.38" height="37.38" fill="#072334"/><path d="M 972 299.08 A 37.38 37.38 0 0 0 1009.38 336.46 L 1009.38 299.08" fill="#072334"/><rect x="1009.38" y="299.08" width="37.38" height="37.38" fill="#072334"/><path d="M 1009.38 336.46 A 37.38 37.38 0 0 0 1046.76 299.08 L 1009.38 299.08" fill="#072334"/><rect x="972" y="336.46" width="37.38" height="37.38" fill="#072334"/><path d="M 972 373.84 A 37.38 37.38 0 0 1  1009.38 336.46 L 1009.38 373.84" fill="#072334"/><rect x="1009.38" y="336.46" width="37.38" height="37.38" fill="#072334"/><path d="M 1009.38 336.46 A 37.38 37.38 0 0 1 1046.76 373.84 L 1009.38 373.84" fill="#072334"/><rect x="1046.77" y="299.08" width="74.77" height="74.77" fill="#072334"/><path d="M 1046.77 299.08 A 74.77 74.77 0 0 1 1121.54 373.84999999999997 L 1046.77 373.84999999999997" fill="#072334"/><rect x="0" y="373.84615384615387" width="74.76923076923077" height="74.76923076923077" fill="#10517a"/><rect x="0" y="373.85" width="37.38" height="37.38" fill="#072334"/><path d="M 0 411.23 A 37.38 37.38 0 0 0 37.38 373.85 L 0 373.85" fill="#072334"/><rect x="37.38" y="373.85" width="37.38" height="37.38" fill="#072334"/><path d="M 37.38 373.85 A 37.38 37.38 0 0 0 74.76 411.23 L 74.76 373.85" fill="#072334"/><rect x="0" y="411.23" width="37.38" height="37.38" fill="#072334"/><path d="M 0 411.23 A 37.38 37.38 0 0 1 37.38 448.61 L 0 448.61" fill="#072334"/><rect x="37.38" y="411.23" width="37.38" height="37.38" fill="#072334"/><path d="M 37.38 448.61 A 37.38 37.38 0 0 1  74.76 411.23 L 74.76 448.61" fill="#072334"/><rect x="74.76923076923077" y="373.84615384615387" width="74.76923076923077" height="74.76923076923077" fill="#10517a"/><rect x="74.77" y="373.85" width="37.38" height="37.38" fill="#072334"/><polygon points="112.15,373.85 112.15,411.23 74.77,411.23" fill="#072334"/><rect x="112.15" y="373.85" width="37.38" height="37.38" fill="#072334"/><polygon points="112.15,373.85 149.53,411.23 112.15,411.23" fill="#072334"/><rect x="74.77" y="411.23" width="37.38" height="37.38" fill="#072334"/><polygon points="74.77,411.23 112.15,411.23 112.15,448.61" fill="#072334"/><rect x="112.15" y="411.23" width="37.38" height="37.38" fill="#072334"/><polygon points="112.15,411.23 149.53,411.23 112.15,448.61" fill="#072334"/><rect x="149.53846153846155" y="373.84615384615387" width="74.76923076923077" height="74.76923076923077" fill="#10517a"/><rect x="149.54" y="373.85" width="37.38" height="37.38" fill="#072334"/><path d="M 149.54 373.85 A 37.38 37.38 0 0 1 186.92 411.23 L 149.54 411.23" fill="#072334"/><rect x="186.92" y="373.85" width="37.38" height="37.38" fill="#072334"/><path d="M 186.92 411.23 A 37.38 37.38 0 0 1  224.29999999999998 373.85 L 224.29999999999998 411.23" fill="#072334"/><rect x="149.54" y="411.23" width="37.38" height="37.38" fill="#072334"/><path d="M 149.54 448.61 A 37.38 37.38 0 0 0 186.92 411.23 L 149.54 411.23" fill="#072334"/><rect x="186.92" y="411.23" width="37.38" height="37.38" fill="#072334"/><path d="M 186.92 411.23 A 37.38 37.38 0 0 0 224.29999999999998 448.61 L 224.29999999999998 411.23" fill="#072334"/><rect x="224.31" y="373.85" width="74.77" height="74.77" fill="#072334"/><polygon points="224.31,373.85 299.08,373.85 299.08,448.62" fill="#072334"/><rect x="299.08" y="373.85" width="74.77" height="74.77" fill="#072334"/><path d="M 299.08 448.62 A 74.77 74.77 0 0 0 373.84999999999997 373.85 L 299.08 373.85" fill="#072334"/><rect x="373.84615384615387" y="373.84615384615387" width="74.76923076923077" height="74.76923076923077" fill="#10517a"/><rect x="373.85" y="373.85" width="37.38" height="37.38" fill="#072334"/><circle cx="392.54" cy="392.54" r="18.69" fill="#072334"/><rect x="411.23" y="373.85" width="37.38" height="37.38" fill="#072334"/><rect x="411.23" y="373.85" width="37.38" height="37.38" fill="#072334"/><rect x="373.85" y="411.23" width="37.38" height="37.38" fill="#072334"/><circle cx="392.54" cy="429.92" r="18.69" fill="#072334"/><rect x="411.23" y="411.23" width="37.38" height="37.38" fill="#072334"/><rect x="411.23" y="411.23" width="37.38" height="37.38" fill="#072334"/><rect x="448.61538461538464" y="373.84615384615387" width="74.76923076923077" height="74.76923076923077" fill="#10517a"/><rect x="448.62" y="373.85" width="37.38" height="37.38" fill="#072334"/><polygon points="486,373.85 486,411.23 448.62,411.23" fill="#072334"/><rect x="486" y="373.85" width="37.38" height="37.38" fill="#072334"/><polygon points="486,373.85 523.38,373.85 486,411.23" fill="#072334"/><rect x="448.62" y="411.23" width="37.38" height="37.38" fill="#072334"/><polygon points="448.62,411.23 486,411.23 486,448.61" fill="#072334"/><rect x="486" y="411.23" width="37.38" height="37.38" fill="#072334"/><polygon points="486,411.23 523.38,448.61 486,448.61" fill="#072334"/><rect x="523.3846153846155" y="373.84615384615387" width="74.76923076923077" height="74.76923076923077" fill="#10517a"/><rect x="523.38" y="373.85" width="37.38" height="37.38" fill="#072334"/><path d="M 523.38 373.85 A 37.38 37.38 0 0 0 560.76 411.23 L 560.76 373.85" fill="#072334"/><rect x="560.77" y="373.85" width="37.38" height="37.38" fill="#072334"/><path d="M 560.77 411.23 A 37.38 37.38 0 0 0 598.15 373.85 L 560.77 373.85" fill="#072334"/><rect x="523.38" y="411.23" width="37.38" height="37.38" fill="#072334"/><path d="M 523.38 448.61 A 37.38 37.38 0 0 1  560.76 411.23 L 560.76 448.61" fill="#072334"/><rect x="560.77" y="411.23" width="37.38" height="37.38" fill="#072334"/><path d="M 560.77 411.23 A 37.38 37.38 0 0 1 598.15 448.61 L 560.77 448.61" fill="#072334"/><rect x="598.15" y="373.85" width="74.77" height="74.77" fill="#072334"/><polygon points="598.15,373.85 672.92,448.62 598.15,448.62" fill="#072334"/><rect x="672.92" y="373.85" width="74.77" height="74.77" fill="#072334"/><polygon points="747.6899999999999,373.85 747.6899999999999,448.62 672.92,448.62" fill="#072334"/><rect x="747.69" y="373.85" width="74.77" height="74.77" fill="#072334"/><polygon points="747.69,373.85 822.46,448.62 747.69,448.62" fill="#072334"/><rect x="822.46" y="373.85" width="74.77" height="74.77" fill="#072334"/><rect x="822.46" y="373.85" width="74.77" height="74.77" fill="#072334"/><rect x="897.23" y="373.85" width="74.77" height="74.77" fill="#072334"/><path d="M 897.23 373.85 A 74.77 74.77 0 0 1 972 448.62 L 897.23 448.62" fill="#072334"/><rect x="972" y="373.85" width="74.77" height="74.77" fill="#072334"/><path d="M 972 448.62 A 74.77 74.77 0 0 0 1046.77 373.85 L 972 373.85" fill="#072334"/><rect x="1046.77" y="373.85" width="74.77" height="74.77" fill="#072334"/><rect x="1046.77" y="373.85" width="74.77" height="74.77" fill="#072334"/><rect x="0" y="448.61538461538464" width="74.76923076923077" height="74.76923076923077" fill="#10517a"/><rect x="0" y="448.62" width="37.38" height="37.38" fill="#072334"/><path d="M 0 486 A 37.38 37.38 0 0 1  37.38 448.62 L 37.38 486" fill="#072334"/><rect x="37.38" y="448.62" width="37.38" height="37.38" fill="#072334"/><path d="M 37.38 448.62 A 37.38 37.38 0 0 1 74.76 486 L 37.38 486" fill="#072334"/><rect x="0" y="486" width="37.38" height="37.38" fill="#072334"/><path d="M 0 486 A 37.38 37.38 0 0 0 37.38 523.38 L 37.38 486" fill="#072334"/><rect x="37.38" y="486" width="37.38" height="37.38" fill="#072334"/><path d="M 37.38 523.38 A 37.38 37.38 0 0 0 74.76 486 L 37.38 486" fill="#072334"/><rect x="74.76923076923077" y="448.61538461538464" width="74.76923076923077" height="74.76923076923077" fill="#10517a"/><rect x="74.77" y="448.62" width="37.38" height="37.38" fill="#072334"/><polygon points="112.15,448.62 112.15,486 74.77,486" fill="#072334"/><rect x="112.15" y="448.62" width="37.38" height="37.38" fill="#072334"/><polygon points="112.15,448.62 149.53,486 112.15,486" fill="#072334"/><rect x="74.77" y="486" width="37.38" height="37.38" fill="#072334"/><polygon points="74.77,486 112.15,486 112.15,523.38" fill="#072334"/><rect x="112.15" y="486" width="37.38" height="37.38" fill="#072334"/><polygon points="112.15,486 149.53,486 112.15,523.38" fill="#072334"/><rect x="149.53846153846155" y="448.61538461538464" width="74.76923076923077" height="74.76923076923077" fill="#10517a"/><rect x="149.54" y="448.62" width="37.38" height="37.38" fill="#072334"/><path d="M 149.54 448.62 A 37.38 37.38 0 0 0 186.92 486 L 186.92 448.62" fill="#072334"/><rect x="186.92" y="448.62" width="37.38" height="37.38" fill="#072334"/><path d="M 186.92 486 A 37.38 37.38 0 0 0 224.29999999999998 448.62 L 186.92 448.62" fill="#072334"/><rect x="149.54" y="486" width="37.38" height="37.38" fill="#072334"/><path d="M 149.54 523.38 A 37.38 37.38 0 0 1  186.92 486 L 186.92 523.38" fill="#072334"/><rect x="186.92" y="486" width="37.38" height="37.38" fill="#072334"/><path d="M 186.92 486 A 37.38 37.38 0 0 1 224.29999999999998 523.38 L 186.92 523.38" fill="#072334"/><rect x="224.31" y="448.62" width="74.77" height="74.77" fill="#072334"/><rect x="224.31" y="448.62" width="74.77" height="74.77" fill="#072334"/><rect x="299.0769230769231" y="448.61538461538464" width="74.76923076923077" height="74.76923076923077" fill="#10517a"/><rect x="299.08" y="448.62" width="37.38" height="37.38" fill="#072334"/><path d="M 299.08 448.62 A 37.38 37.38 0 0 1 336.46 486 L 299.08 486" fill="#072334"/><rect x="336.46" y="448.62" width="37.38" height="37.38" fill="#072334"/><path d="M 336.46 486 A 37.38 37.38 0 0 1  373.84 448.62 L 373.84 486" fill="#072334"/><rect x="299.08" y="486" width="37.38" height="37.38" fill="#072334"/><path d="M 299.08 523.38 A 37.38 37.38 0 0 0 336.46 486 L 299.08 486" fill="#072334"/><rect x="336.46" y="486" width="37.38" height="37.38" fill="#072334"/><path d="M 336.46 486 A 37.38 37.38 0 0 0 373.84 523.38 L 373.84 486" fill="#072334"/><rect x="373.85" y="448.62" width="74.77" height="74.77" fill="#072334"/><polygon points="373.85,448.62 448.62,523.39 373.85,523.39" fill="#072334"/><rect x="448.61538461538464" y="448.61538461538464" width="74.76923076923077" height="74.76923076923077" fill="#10517a"/><rect x="448.62" y="448.62" width="37.38" height="37.38" fill="#072334"/><polygon points="486,448.62 486,486 448.62,486" fill="#072334"/><rect x="486" y="448.62" width="37.38" height="37.38" fill="#072334"/><polygon points="486,448.62 523.38,486 486,486" fill="#072334"/><rect x="448.62" y="486" width="37.38" height="37.38" fill="#072334"/><polygon points="448.62,486 486,486 448.62,523.38" fill="#072334"/><rect x="486" y="486" width="37.38" height="37.38" fill="#072334"/><polygon points="486,486 523.38,486 523.38,523.38" fill="#072334"/><rect x="523.38" y="448.62" width="74.77" height="74.77" fill="#072334"/><path d="M 523.38 523.39 A 74.77 74.77 0 0 1  598.15 448.62 L 523.38 523.39 A 74.77 74.77 0 0 0 598.15 448.62" fill="#072334"/><rect x="598.1538461538462" y="448.61538461538464" width="74.76923076923077" height="74.76923076923077" fill="#10517a"/><rect x="598.15" y="448.62" width="37.38" height="37.38" fill="#072334"/><path d="M 598.15 486 A 37.38 37.38 0 0 1 635.53 448.62 L 635.53 457.96500000000003 A 28.035000000000004 28.035000000000004 0 0 0 607.495 486" fill="#072334"/><rect x="635.54" y="448.62" width="37.38" height="37.38" fill="#072334"/><path d="M 635.54 448.62 A 37.38 37.38 0 0 1 672.92 486 L 663.5749999999999 486 A 28.035000000000004 28.035000000000004 0 0 0 635.54 457.96500000000003" fill="#072334"/><rect x="598.15" y="486" width="37.38" height="37.38" fill="#072334"/><path d="M 598.15 486 A 37.38 37.38 0 0 0 635.53 523.38 L 635.53 514.035 A 28.035000000000004 28.035000000000004 0 0 1 607.495 486" fill="#072334"/><rect x="635.54" y="486" width="37.38" height="37.38" fill="#072334"/><path d="M 635.54 523.38 A 37.38 37.38 0 0 0 672.92 486 L 663.5749999999999 486 A 28.035000000000004 28.035000000000004 0 0 1 635.54 514.035" fill="#072334"/><rect x="672.92" y="448.62" width="74.77" height="74.77" fill="#072334"/><path d="M 672.92 523.39 A 74.77 74.77 0 0 0 747.6899999999999 448.62 L 672.92 448.62" fill="#072334"/><rect x="747.69" y="448.62" width="74.77" height="74.77" fill="#072334"/><polygon points="747.69,448.62 822.46,448.62 822.46,523.39" fill="#072334"/><rect x="822.46" y="448.62" width="74.77" height="74.77" fill="#072334"/><path d="M 822.46 448.62 A 74.77 74.77 0 0 0 897.23 523.39 L 897.23 448.62" fill="#072334"/><rect x="897.2307692307693" y="448.61538461538464" width="74.76923076923077" height="74.76923076923077" fill="#10517a"/><rect x="897.23" y="448.62" width="37.38" height="37.38" fill="#072334"/><polygon points="934.61,448.62 934.61,486 897.23,486" fill="#072334"/><rect x="934.62" y="448.62" width="37.38" height="37.38" fill="#072334"/><polygon points="934.62,448.62 972,486 934.62,486" fill="#072334"/><rect x="897.23" y="486" width="37.38" height="37.38" fill="#072334"/><polygon points="897.23,486 934.61,486 934.61,523.38" fill="#072334"/><rect x="934.62" y="486" width="37.38" height="37.38" fill="#072334"/><polygon points="934.62,486 972,486 934.62,523.38" fill="#072334"/><rect x="972" y="448.62" width="74.77" height="74.77" fill="#072334"/><polygon points="1046.77,448.62 1046.77,523.39 972,523.39" fill="#072334"/><rect x="1046.77" y="448.62" width="74.77" height="74.77" fill="#072334"/><rect x="1046.77" y="448.62" width="74.77" height="74.77" fill="#072334"/><rect x="0" y="523.3846153846155" width="74.76923076923077" height="74.76923076923077" fill="#10517a"/><rect x="0" y="523.38" width="37.38" height="37.38" fill="#072334"/><path d="M 0 523.38 A 37.38 37.38 0 0 1 37.38 560.76 L 0 560.76" fill="#072334"/><rect x="37.38" y="523.38" width="37.38" height="37.38" fill="#072334"/><path d="M 37.38 560.76 A 37.38 37.38 0 0 1  74.76 523.38 L 74.76 560.76" fill="#072334"/><rect x="0" y="560.77" width="37.38" height="37.38" fill="#072334"/><path d="M 0 598.15 A 37.38 37.38 0 0 0 37.38 560.77 L 0 560.77" fill="#072334"/><rect x="37.38" y="560.77" width="37.38" height="37.38" fill="#072334"/><path d="M 37.38 560.77 A 37.38 37.38 0 0 0 74.76 598.15 L 74.76 560.77" fill="#072334"/><rect x="74.76923076923077" y="523.3846153846155" width="74.76923076923077" height="74.76923076923077" fill="#10517a"/><rect x="74.77" y="523.38" width="37.38" height="37.38" fill="#072334"/><circle cx="93.46" cy="542.07" r="18.69" fill="#072334"/><rect x="112.15" y="523.38" width="37.38" height="37.38" fill="#072334"/><rect x="112.15" y="523.38" width="37.38" height="37.38" fill="#072334"/><rect x="74.77" y="560.77" width="37.38" height="37.38" fill="#072334"/><circle cx="93.46" cy="579.46" r="18.69" fill="#072334"/><rect x="112.15" y="560.77" width="37.38" height="37.38" fill="#072334"/><rect x="112.15" y="560.77" width="37.38" height="37.38" fill="#072334"/><rect x="149.54" y="523.38" width="74.77" height="74.77" fill="#072334"/><rect x="149.54" y="523.38" width="74.77" height="74.77" fill="#072334"/><rect x="224.31" y="523.38" width="74.77" height="74.77" fill="#072334"/><rect x="224.31" y="523.38" width="74.77" height="74.77" fill="#072334"/><rect x="299.08" y="523.38" width="74.77" height="74.77" fill="#072334"/><path d="M 299.08 598.15 A 74.77 74.77 0 0 1  373.84999999999997 523.38 L 373.84999999999997 598.15" fill="#072334"/><rect x="373.85" y="523.38" width="74.77" height="74.77" fill="#072334"/><path d="M 373.85 523.38 A 74.77 74.77 0 0 1  448.62 598.15 L 373.85 523.38 A 74.77 74.77 0 0 0 448.62 598.15" fill="#072334"/><rect x="448.62" y="523.38" width="74.77" height="74.77" fill="#072334"/><polygon points="523.39,523.38 523.39,598.15 448.62,598.15" fill="#072334"/><rect x="523.3846153846155" y="523.3846153846155" width="74.76923076923077" height="74.76923076923077" fill="#10517a"/><rect x="523.38" y="523.38" width="37.38" height="37.38" fill="#072334"/><path d="M 523.38 523.38 A 37.38 37.38 0 0 0 560.76 560.76 L 560.76 523.38" fill="#072334"/><rect x="560.77" y="523.38" width="37.38" height="37.38" fill="#072334"/><path d="M 560.77 560.76 A 37.38 37.38 0 0 0 598.15 523.38 L 560.77 523.38" fill="#072334"/><rect x="523.38" y="560.77" width="37.38" height="37.38" fill="#072334"/><path d="M 523.38 598.15 A 37.38 37.38 0 0 1  560.76 560.77 L 560.76 598.15" fill="#072334"/><rect x="560.77" y="560.77" width="37.38" height="37.38" fill="#072334"/><path d="M 560.77 560.77 A 37.38 37.38 0 0 1 598.15 598.15 L 560.77 598.15" fill="#072334"/><rect x="598.15" y="523.38" width="74.77" height="74.77" fill="#072334"/><rect x="598.15" y="523.38" width="74.77" height="74.77" fill="#072334"/><rect x="672.9230769230769" y="523.3846153846155" width="74.76923076923077" height="74.76923076923077" fill="#10517a"/><rect x="672.92" y="523.38" width="37.38" height="37.38" fill="#072334"/><path d="M 672.92 523.38 A 37.38 37.38 0 0 1 710.3 560.76 L 672.92 560.76" fill="#072334"/><rect x="710.31" y="523.38" width="37.38" height="37.38" fill="#072334"/><path d="M 710.31 560.76 A 37.38 37.38 0 0 1  747.6899999999999 523.38 L 747.6899999999999 560.76" fill="#072334"/><rect x="672.92" y="560.77" width="37.38" height="37.38" fill="#072334"/><path d="M 672.92 598.15 A 37.38 37.38 0 0 0 710.3 560.77 L 672.92 560.77" fill="#072334"/><rect x="710.31" y="560.77" width="37.38" height="37.38" fill="#072334"/><path d="M 710.31 560.77 A 37.38 37.38 0 0 0 747.6899999999999 598.15 L 747.6899999999999 560.77" fill="#072334"/><rect x="747.6923076923077" y="523.3846153846155" width="74.76923076923077" height="74.76923076923077" fill="#10517a"/><rect x="747.69" y="523.38" width="37.38" height="37.38" fill="#072334"/><circle cx="766.3800000000001" cy="542.07" r="18.69" fill="#072334"/><rect x="785.08" y="523.38" width="37.38" height="37.38" fill="#072334"/><rect x="785.08" y="523.38" width="37.38" height="37.38" fill="#072334"/><rect x="747.69" y="560.77" width="37.38" height="37.38" fill="#072334"/><circle cx="766.3800000000001" cy="579.46" r="18.69" fill="#072334"/><rect x="785.08" y="560.77" width="37.38" height="37.38" fill="#072334"/><rect x="785.08" y="560.77" width="37.38" height="37.38" fill="#072334"/><rect x="822.46" y="523.38" width="74.77" height="74.77" fill="#072334"/><polygon points="897.23,523.38 897.23,598.15 822.46,598.15" fill="#072334"/><rect x="897.23" y="523.38" width="74.77" height="74.77" fill="#072334"/><rect x="897.23" y="523.38" width="74.77" height="74.77" fill="#072334"/><rect x="972" y="523.3846153846155" width="74.76923076923077" height="74.76923076923077" fill="#10517a"/><rect x="972" y="523.38" width="37.38" height="37.38" fill="#072334"/><circle cx="990.69" cy="542.07" r="18.69" fill="#072334"/><rect x="1009.38" y="523.38" width="37.38" height="37.38" fill="#072334"/><rect x="1009.38" y="523.38" width="37.38" height="37.38" fill="#072334"/><rect x="972" y="560.77" width="37.38" height="37.38" fill="#072334"/><circle cx="990.69" cy="579.46" r="18.69" fill="#072334"/><rect x="1009.38" y="560.77" width="37.38" height="37.38" fill="#072334"/><rect x="1009.38" y="560.77" width="37.38" height="37.38" fill="#072334"/><rect x="1046.77" y="523.38" width="74.77" height="74.77" fill="#072334"/><rect x="1046.77" y="523.38" width="74.77" height="74.77" fill="#072334"/><rect x="0" y="598.15" width="74.77" height="74.77" fill="#072334"/><polygon points="0,598.15 74.77,598.15 74.77,672.92" fill="#072334"/><rect x="74.76923076923077" y="598.1538461538462" width="74.76923076923077" height="74.76923076923077" fill="#10517a"/><rect x="74.77" y="598.15" width="37.38" height="37.38" fill="#072334"/><polygon points="112.15,598.15 112.15,635.53 74.77,635.53" fill="#072334"/><rect x="112.15" y="598.15" width="37.38" height="37.38" fill="#072334"/><polygon points="112.15,598.15 149.53,598.15 112.15,635.53" fill="#072334"/><rect x="74.77" y="635.54" width="37.38" height="37.38" fill="#072334"/><polygon points="74.77,635.54 112.15,635.54 112.15,672.92" fill="#072334"/><rect x="112.15" y="635.54" width="37.38" height="37.38" fill="#072334"/><polygon points="112.15,635.54 149.53,672.92 112.15,672.92" fill="#072334"/><rect x="149.53846153846155" y="598.1538461538462" width="74.76923076923077" height="74.76923076923077" fill="#10517a"/><rect x="149.54" y="598.15" width="37.38" height="37.38" fill="#072334"/><path d="M 149.54 635.53 A 37.38 37.38 0 0 0 186.92 598.15 L 149.54 598.15" fill="#072334"/><rect x="186.92" y="598.15" width="37.38" height="37.38" fill="#072334"/><path d="M 186.92 598.15 A 37.38 37.38 0 0 0 224.29999999999998 635.53 L 224.29999999999998 598.15" fill="#072334"/><rect x="149.54" y="635.54" width="37.38" height="37.38" fill="#072334"/><path d="M 149.54 635.54 A 37.38 37.38 0 0 1 186.92 672.92 L 149.54 672.92" fill="#072334"/><rect x="186.92" y="635.54" width="37.38" height="37.38" fill="#072334"/><path d="M 186.92 672.92 A 37.38 37.38 0 0 1  224.29999999999998 635.54 L 224.29999999999998 672.92" fill="#072334"/><rect x="224.30769230769232" y="598.1538461538462" width="74.76923076923077" height="74.76923076923077" fill="#10517a"/><rect x="224.31" y="598.15" width="37.38" height="37.38" fill="#072334"/><polygon points="261.69,598.15 261.69,635.53 224.31,635.53" fill="#072334"/><rect x="261.69" y="598.15" width="37.38" height="37.38" fill="#072334"/><polygon points="261.69,598.15 299.07,598.15 261.69,635.53" fill="#072334"/><rect x="224.31" y="635.54" width="37.38" height="37.38" fill="#072334"/><polygon points="224.31,635.54 261.69,635.54 261.69,672.92" fill="#072334"/><rect x="261.69" y="635.54" width="37.38" height="37.38" fill="#072334"/><polygon points="261.69,635.54 299.07,672.92 261.69,672.92" fill="#072334"/><rect x="299.0769230769231" y="598.1538461538462" width="74.76923076923077" height="74.76923076923077" fill="#10517a"/><rect x="299.08" y="598.15" width="37.38" height="37.38" fill="#072334"/><polygon points="336.46,598.15 336.46,635.53 299.08,635.53" fill="#072334"/><rect x="336.46" y="598.15" width="37.38" height="37.38" fill="#072334"/><polygon points="336.46,598.15 373.84,598.15 336.46,635.53" fill="#072334"/><rect x="299.08" y="635.54" width="37.38" height="37.38" fill="#072334"/><polygon points="299.08,635.54 336.46,635.54 336.46,672.92" fill="#072334"/><rect x="336.46" y="635.54" width="37.38" height="37.38" fill="#072334"/><polygon points="336.46,635.54 373.84,672.92 336.46,672.92" fill="#072334"/><rect x="373.84615384615387" y="598.1538461538462" width="74.76923076923077" height="74.76923076923077" fill="#10517a"/><rect x="373.85" y="598.15" width="37.38" height="37.38" fill="#072334"/><path d="M 373.85 635.53 A 37.38 37.38 0 0 0 411.23 598.15 L 373.85 598.15" fill="#072334"/><rect x="411.23" y="598.15" width="37.38" height="37.38" fill="#072334"/><path d="M 411.23 598.15 A 37.38 37.38 0 0 0 448.61 635.53 L 448.61 598.15" fill="#072334"/><rect x="373.85" y="635.54" width="37.38" height="37.38" fill="#072334"/><path d="M 373.85 635.54 A 37.38 37.38 0 0 1 411.23 672.92 L 373.85 672.92" fill="#072334"/><rect x="411.23" y="635.54" width="37.38" height="37.38" fill="#072334"/><path d="M 411.23 672.92 A 37.38 37.38 0 0 1  448.61 635.54 L 448.61 672.92" fill="#072334"/><rect x="448.61538461538464" y="598.1538461538462" width="74.76923076923077" height="74.76923076923077" fill="#10517a"/><rect x="448.62" y="598.15" width="37.38" height="37.38" fill="#072334"/><circle cx="467.31" cy="616.84" r="18.69" fill="#072334"/><rect x="486" y="598.15" width="37.38" height="37.38" fill="#072334"/><rect x="486" y="598.15" width="37.38" height="37.38" fill="#072334"/><rect x="448.62" y="635.54" width="37.38" height="37.38" fill="#072334"/><circle cx="467.31" cy="654.23" r="18.69" fill="#072334"/><rect x="486" y="635.54" width="37.38" height="37.38" fill="#072334"/><rect x="486" y="635.54" width="37.38" height="37.38" fill="#072334"/><rect x="523.3846153846155" y="598.1538461538462" width="74.76923076923077" height="74.76923076923077" fill="#10517a"/><rect x="523.38" y="598.15" width="37.38" height="37.38" fill="#072334"/><polygon points="560.76,598.15 560.76,635.53 523.38,635.53" fill="#072334"/><rect x="560.77" y="598.15" width="37.38" height="37.38" fill="#072334"/><polygon points="560.77,598.15 598.15,635.53 560.77,635.53" fill="#072334"/><rect x="523.38" y="635.54" width="37.38" height="37.38" fill="#072334"/><polygon points="523.38,635.54 560.76,635.54 523.38,672.92" fill="#072334"/><rect x="560.77" y="635.54" width="37.38" height="37.38" fill="#072334"/><polygon points="560.77,635.54 598.15,635.54 598.15,672.92" fill="#072334"/><rect x="598.1538461538462" y="598.1538461538462" width="74.76923076923077" height="74.76923076923077" fill="#10517a"/><rect x="598.15" y="598.15" width="37.38" height="37.38" fill="#072334"/><polygon points="635.53,598.15 635.53,635.53 598.15,635.53" fill="#072334"/><rect x="635.54" y="598.15" width="37.38" height="37.38" fill="#072334"/><polygon points="635.54,598.15 672.92,598.15 635.54,635.53" fill="#072334"/><rect x="598.15" y="635.54" width="37.38" height="37.38" fill="#072334"/><polygon points="598.15,635.54 635.53,635.54 635.53,672.92" fill="#072334"/><rect x="635.54" y="635.54" width="37.38" height="37.38" fill="#072334"/><polygon points="635.54,635.54 672.92,672.92 635.54,672.92" fill="#072334"/><rect x="672.9230769230769" y="598.1538461538462" width="74.76923076923077" height="74.76923076923077" fill="#10517a"/><rect x="672.92" y="598.15" width="37.38" height="37.38" fill="#072334"/><path d="M 672.92 598.15 A 37.38 37.38 0 0 1 710.3 635.53 L 672.92 635.53" fill="#072334"/><rect x="710.31" y="598.15" width="37.38" height="37.38" fill="#072334"/><path d="M 710.31 635.53 A 37.38 37.38 0 0 1  747.6899999999999 598.15 L 747.6899999999999 635.53" fill="#072334"/><rect x="672.92" y="635.54" width="37.38" height="37.38" fill="#072334"/><path d="M 672.92 672.92 A 37.38 37.38 0 0 0 710.3 635.54 L 672.92 635.54" fill="#072334"/><rect x="710.31" y="635.54" width="37.38" height="37.38" fill="#072334"/><path d="M 710.31 635.54 A 37.38 37.38 0 0 0 747.6899999999999 672.92 L 747.6899999999999 635.54" fill="#072334"/><rect x="747.69" y="598.15" width="74.77" height="74.77" fill="#072334"/><rect x="747.69" y="598.15" width="74.77" height="74.77" fill="#072334"/><rect x="822.4615384615386" y="598.1538461538462" width="74.76923076923077" height="74.76923076923077" fill="#10517a"/><rect x="822.46" y="598.15" width="37.38" height="37.38" fill="#072334"/><path d="M 822.46 635.53 A 37.38 37.38 0 0 1  859.84 598.15 L 859.84 635.53" fill="#072334"/><rect x="859.85" y="598.15" width="37.38" height="37.38" fill="#072334"/><path d="M 859.85 598.15 A 37.38 37.38 0 0 1 897.23 635.53 L 859.85 635.53" fill="#072334"/><rect x="822.46" y="635.54" width="37.38" height="37.38" fill="#072334"/><path d="M 822.46 635.54 A 37.38 37.38 0 0 0 859.84 672.92 L 859.84 635.54" fill="#072334"/><rect x="859.85" y="635.54" width="37.38" height="37.38" fill="#072334"/><path d="M 859.85 672.92 A 37.38 37.38 0 0 0 897.23 635.54 L 859.85 635.54" fill="#072334"/><rect x="897.23" y="598.15" width="74.77" height="74.77" fill="#072334"/><path d="M 897.23 672.92 A 74.77 74.77 0 0 1  972 598.15 L 897.23 672.92 A 74.77 74.77 0 0 0 972 598.15" fill="#072334"/><rect x="972" y="598.15" width="74.77" height="74.77" fill="#072334"/><polygon points="972,598.15 1046.77,598.15 1046.77,672.92" fill="#072334"/><rect x="1046.769230769231" y="598.1538461538462" width="74.76923076923077" height="74.76923076923077" fill="#10517a"/><rect x="1046.77" y="598.15" width="37.38" height="37.38" fill="#072334"/><path d="M 1046.77 598.15 A 37.38 37.38 0 0 1 1084.15 635.53 L 1046.77 635.53" fill="#072334"/><rect x="1084.15" y="598.15" width="37.38" height="37.38" fill="#072334"/><path d="M 1084.15 635.53 A 37.38 37.38 0 0 1  1121.5300000000002 598.15 L 1121.5300000000002 635.53" fill="#072334"/><rect x="1046.77" y="635.54" width="37.38" height="37.38" fill="#072334"/><path d="M 1046.77 672.92 A 37.38 37.38 0 0 0 1084.15 635.54 L 1046.77 635.54" fill="#072334"/><rect x="1084.15" y="635.54" width="37.38" height="37.38" fill="#072334"/><path d="M 1084.15 635.54 A 37.38 37.38 0 0 0 1121.5300000000002 672.92 L 1121.5300000000002 635.54" fill="#072334"/><rect x="0" y="672.9230769230769" width="74.76923076923077" height="74.76923076923077" fill="#10517a"/><rect x="0" y="672.92" width="37.38" height="37.38" fill="#072334"/><path d="M 0 672.92 A 37.38 37.38 0 0 1 37.38 710.3 L 0 710.3" fill="#072334"/><rect x="37.38" y="672.92" width="37.38" height="37.38" fill="#072334"/><path d="M 37.38 710.3 A 37.38 37.38 0 0 1  74.76 672.92 L 74.76 710.3" fill="#072334"/><rect x="0" y="710.31" width="37.38" height="37.38" fill="#072334"/><path d="M 0 747.6899999999999 A 37.38 37.38 0 0 0 37.38 710.31 L 0 710.31" fill="#072334"/><rect x="37.38" y="710.31" width="37.38" height="37.38" fill="#072334"/><path d="M 37.38 710.31 A 37.38 37.38 0 0 0 74.76 747.6899999999999 L 74.76 710.31" fill="#072334"/><rect x="74.76923076923077" y="672.9230769230769" width="74.76923076923077" height="74.76923076923077" fill="#10517a"/><rect x="74.77" y="672.92" width="37.38" height="37.38" fill="#072334"/><path d="M 74.77 672.92 A 37.38 37.38 0 0 1 112.15 710.3 L 74.77 710.3" fill="#072334"/><rect x="112.15" y="672.92" width="37.38" height="37.38" fill="#072334"/><path d="M 112.15 710.3 A 37.38 37.38 0 0 1  149.53 672.92 L 149.53 710.3" fill="#072334"/><rect x="74.77" y="710.31" width="37.38" height="37.38" fill="#072334"/><path d="M 74.77 747.6899999999999 A 37.38 37.38 0 0 0 112.15 710.31 L 74.77 710.31" fill="#072334"/><rect x="112.15" y="710.31" width="37.38" height="37.38" fill="#072334"/><path d="M 112.15 710.31 A 37.38 37.38 0 0 0 149.53 747.6899999999999 L 149.53 710.31" fill="#072334"/><rect x="149.54" y="672.92" width="74.77" height="74.77" fill="#072334"/><polygon points="149.54,672.92 224.31,672.92 224.31,747.6899999999999" fill="#072334"/><rect x="224.31" y="672.92" width="74.77" height="74.77" fill="#072334"/><path d="M 224.31 672.92 A 74.77 74.77 0 0 0 299.08 747.6899999999999 L 299.08 672.92" fill="#072334"/><rect x="299.0769230769231" y="672.9230769230769" width="74.76923076923077" height="74.76923076923077" fill="#10517a"/><rect x="299.08" y="672.92" width="37.38" height="37.38" fill="#072334"/><polygon points="336.46,672.92 336.46,710.3 299.08,710.3" fill="#072334"/><rect x="336.46" y="672.92" width="37.38" height="37.38" fill="#072334"/><polygon points="336.46,672.92 373.84,710.3 336.46,710.3" fill="#072334"/><rect x="299.08" y="710.31" width="37.38" height="37.38" fill="#072334"/><polygon points="299.08,710.31 336.46,710.31 336.46,747.6899999999999" fill="#072334"/><rect x="336.46" y="710.31" width="37.38" height="37.38" fill="#072334"/><polygon points="336.46,710.31 373.84,710.31 336.46,747.6899999999999" fill="#072334"/><rect x="373.85" y="672.92" width="74.77" height="74.77" fill="#072334"/><path d="M 373.85 672.92 A 74.77 74.77 0 0 1  448.62 747.6899999999999 L 373.85 672.92 A 74.77 74.77 0 0 0 448.62 747.6899999999999" fill="#072334"/><rect x="448.61538461538464" y="672.9230769230769" width="74.76923076923077" height="74.76923076923077" fill="#10517a"/><rect x="448.62" y="672.92" width="37.38" height="37.38" fill="#072334"/><path d="M 448.62 672.92 A 37.38 37.38 0 0 1 486 710.3 L 448.62 710.3" fill="#072334"/><rect x="486" y="672.92" width="37.38" height="37.38" fill="#072334"/><path d="M 486 710.3 A 37.38 37.38 0 0 1  523.38 672.92 L 523.38 710.3" fill="#072334"/><rect x="448.62" y="710.31" width="37.38" height="37.38" fill="#072334"/><path d="M 448.62 747.6899999999999 A 37.38 37.38 0 0 0 486 710.31 L 448.62 710.31" fill="#072334"/><rect x="486" y="710.31" width="37.38" height="37.38" fill="#072334"/><path d="M 486 710.31 A 37.38 37.38 0 0 0 523.38 747.6899999999999 L 523.38 710.31" fill="#072334"/><rect x="523.3846153846155" y="672.9230769230769" width="74.76923076923077" height="74.76923076923077" fill="#10517a"/><rect x="523.38" y="672.92" width="37.38" height="37.38" fill="#072334"/><circle cx="542.07" cy="691.61" r="18.69" fill="#072334"/><rect x="560.77" y="672.92" width="37.38" height="37.38" fill="#072334"/><rect x="560.77" y="672.92" width="37.38" height="37.38" fill="#072334"/><rect x="523.38" y="710.31" width="37.38" height="37.38" fill="#072334"/><circle cx="542.07" cy="729" r="18.69" fill="#072334"/><rect x="560.77" y="710.31" width="37.38" height="37.38" fill="#072334"/><rect x="560.77" y="710.31" width="37.38" height="37.38" fill="#072334"/><rect x="598.1538461538462" y="672.9230769230769" width="74.76923076923077" height="74.76923076923077" fill="#10517a"/><rect x="598.15" y="672.92" width="37.38" height="37.38" fill="#072334"/><path d="M 598.15 710.3 A 37.38 37.38 0 0 1 635.53 672.92 L 635.53 682.265 A 28.035000000000004 28.035000000000004 0 0 0 607.495 710.3" fill="#072334"/><rect x="635.54" y="672.92" width="37.38" height="37.38" fill="#072334"/><path d="M 635.54 672.92 A 37.38 37.38 0 0 1 672.92 710.3 L 663.5749999999999 710.3 A 28.035000000000004 28.035000000000004 0 0 0 635.54 682.265" fill="#072334"/><rect x="598.15" y="710.31" width="37.38" height="37.38" fill="#072334"/><path d="M 598.15 710.31 A 37.38 37.38 0 0 0 635.53 747.6899999999999 L 635.53 738.3449999999999 A 28.035000000000004 28.035000000000004 0 0 1 607.495 710.31" fill="#072334"/><rect x="635.54" y="710.31" width="37.38" height="37.38" fill="#072334"/><path d="M 635.54 747.6899999999999 A 37.38 37.38 0 0 0 672.92 710.31 L 663.5749999999999 710.31 A 28.035000000000004 28.035000000000004 0 0 1 635.54 738.3449999999999" fill="#072334"/><rect x="672.92" y="672.92" width="74.77" height="74.77" fill="#072334"/><polygon points="672.92,672.92 747.6899999999999,747.6899999999999 672.92,747.6899999999999" fill="#072334"/><rect x="747.69" y="672.92" width="74.77" height="74.77" fill="#072334"/><rect x="747.69" y="672.92" width="74.77" height="74.77" fill="#072334"/><rect x="822.4615384615386" y="672.9230769230769" width="74.76923076923077" height="74.76923076923077" fill="#10517a"/><rect x="822.46" y="672.92" width="37.38" height="37.38" fill="#072334"/><polygon points="859.84,672.92 859.84,710.3 822.46,710.3" fill="#072334"/><rect x="859.85" y="672.92" width="37.38" height="37.38" fill="#072334"/><polygon points="859.85,672.92 897.23,710.3 859.85,710.3" fill="#072334"/><rect x="822.46" y="710.31" width="37.38" height="37.38" fill="#072334"/><polygon points="822.46,710.31 859.84,710.31 859.84,747.6899999999999" fill="#072334"/><rect x="859.85" y="710.31" width="37.38" height="37.38" fill="#072334"/><polygon points="859.85,710.31 897.23,710.31 859.85,747.6899999999999" fill="#072334"/><rect x="897.23" y="672.92" width="74.77" height="74.77" fill="#072334"/><path d="M 897.23 672.92 A 74.77 74.77 0 0 1 972 747.6899999999999 L 897.23 747.6899999999999" fill="#072334"/><rect x="972" y="672.9230769230769" width="74.76923076923077" height="74.76923076923077" fill="#10517a"/><rect x="972" y="672.92" width="37.38" height="37.38" fill="#072334"/><path d="M 972 710.3 A 37.38 37.38 0 0 1  1009.38 672.92 L 1009.38 710.3" fill="#072334"/><rect x="1009.38" y="672.92" width="37.38" height="37.38" fill="#072334"/><path d="M 1009.38 672.92 A 37.38 37.38 0 0 1 1046.76 710.3 L 1009.38 710.3" fill="#072334"/><rect x="972" y="710.31" width="37.38" height="37.38" fill="#072334"/><path d="M 972 710.31 A 37.38 37.38 0 0 0 1009.38 747.6899999999999 L 1009.38 710.31" fill="#072334"/><rect x="1009.38" y="710.31" width="37.38" height="37.38" fill="#072334"/><path d="M 1009.38 747.6899999999999 A 37.38 37.38 0 0 0 1046.76 710.31 L 1009.38 710.31" fill="#072334"/><rect x="1046.77" y="672.92" width="74.77" height="74.77" fill="#072334"/><polygon points="1121.54,672.92 1121.54,747.6899999999999 1046.77,747.6899999999999" fill="#072334"/><rect x="0" y="747.69" width="74.77" height="74.77" fill="#072334"/><polygon points="0,747.69 74.77,747.69 74.77,822.46" fill="#072334"/><rect x="74.76923076923077" y="747.6923076923077" width="74.76923076923077" height="74.76923076923077" fill="#10517a"/><rect x="74.77" y="747.69" width="37.38" height="37.38" fill="#072334"/><path d="M 74.77 785.07 A 37.38 37.38 0 0 1 112.15 747.69 L 112.15 757.0350000000001 A 28.035000000000004 28.035000000000004 0 0 0 84.115 785.07" fill="#072334"/><rect x="112.15" y="747.69" width="37.38" height="37.38" fill="#072334"/><path d="M 112.15 747.69 A 37.38 37.38 0 0 1 149.53 785.07 L 140.185 785.07 A 28.035000000000004 28.035000000000004 0 0 0 112.15 757.0350000000001" fill="#072334"/><rect x="74.77" y="785.08" width="37.38" height="37.38" fill="#072334"/><path d="M 74.77 785.08 A 37.38 37.38 0 0 0 112.15 822.46 L 112.15 813.115 A 28.035000000000004 28.035000000000004 0 0 1 84.115 785.08" fill="#072334"/><rect x="112.15" y="785.08" width="37.38" height="37.38" fill="#072334"/><path d="M 112.15 822.46 A 37.38 37.38 0 0 0 149.53 785.08 L 140.185 785.08 A 28.035000000000004 28.035000000000004 0 0 1 112.15 813.115" fill="#072334"/><rect x="149.54" y="747.69" width="74.77" height="74.77" fill="#072334"/><path d="M 149.54 747.69 A 74.77 74.77 0 0 0 224.31 822.46 L 224.31 747.69" fill="#072334"/><rect x="224.31" y="747.69" width="74.77" height="74.77" fill="#072334"/><rect x="224.31" y="747.69" width="74.77" height="74.77" fill="#072334"/><rect x="299.08" y="747.69" width="74.77" height="74.77" fill="#072334"/><polygon points="373.84999999999997,747.69 373.84999999999997,822.46 299.08,822.46" fill="#072334"/><rect x="373.85" y="747.69" width="74.77" height="74.77" fill="#072334"/><path d="M 373.85 747.69 A 74.77 74.77 0 0 0 448.62 822.46 L 448.62 747.69" fill="#072334"/><rect x="448.61538461538464" y="747.6923076923077" width="74.76923076923077" height="74.76923076923077" fill="#10517a"/><rect x="448.62" y="747.69" width="37.38" height="37.38" fill="#072334"/><circle cx="467.31" cy="766.3800000000001" r="18.69" fill="#072334"/><rect x="486" y="747.69" width="37.38" height="37.38" fill="#072334"/><rect x="486" y="747.69" width="37.38" height="37.38" fill="#072334"/><rect x="448.62" y="785.08" width="37.38" height="37.38" fill="#072334"/><circle cx="467.31" cy="803.7700000000001" r="18.69" fill="#072334"/><rect x="486" y="785.08" width="37.38" height="37.38" fill="#072334"/><rect x="486" y="785.08" width="37.38" height="37.38" fill="#072334"/><rect x="523.3846153846155" y="747.6923076923077" width="74.76923076923077" height="74.76923076923077" fill="#10517a"/><rect x="523.38" y="747.69" width="37.38" height="37.38" fill="#072334"/><path d="M 523.38 747.69 A 37.38 37.38 0 0 0 560.76 785.07 L 560.76 747.69" fill="#072334"/><rect x="560.77" y="747.69" width="37.38" height="37.38" fill="#072334"/><path d="M 560.77 785.07 A 37.38 37.38 0 0 0 598.15 747.69 L 560.77 747.69" fill="#072334"/><rect x="523.38" y="785.08" width="37.38" height="37.38" fill="#072334"/><path d="M 523.38 822.46 A 37.38 37.38 0 0 1  560.76 785.08 L 560.76 822.46" fill="#072334"/><rect x="560.77" y="785.08" width="37.38" height="37.38" fill="#072334"/><path d="M 560.77 785.08 A 37.38 37.38 0 0 1 598.15 822.46 L 560.77 822.46" fill="#072334"/><rect x="598.1538461538462" y="747.6923076923077" width="74.76923076923077" height="74.76923076923077" fill="#10517a"/><rect x="598.15" y="747.69" width="37.38" height="37.38" fill="#072334"/><polygon points="635.53,747.69 635.53,785.07 598.15,785.07" fill="#072334"/><rect x="635.54" y="747.69" width="37.38" height="37.38" fill="#072334"/><polygon points="635.54,747.69 672.92,785.07 635.54,785.07" fill="#072334"/><rect x="598.15" y="785.08" width="37.38" height="37.38" fill="#072334"/><polygon points="598.15,785.08 635.53,785.08 635.53,822.46" fill="#072334"/><rect x="635.54" y="785.08" width="37.38" height="37.38" fill="#072334"/><polygon points="635.54,785.08 672.92,785.08 635.54,822.46" fill="#072334"/><rect x="672.92" y="747.69" width="74.77" height="74.77" fill="#072334"/><rect x="672.92" y="747.69" width="74.77" height="74.77" fill="#072334"/><rect x="747.69" y="747.69" width="74.77" height="74.77" fill="#072334"/><polygon points="747.69,747.69 822.46,747.69 747.69,822.46" fill="#072334"/><rect x="822.46" y="747.69" width="74.77" height="74.77" fill="#072334"/><polygon points="897.23,747.69 897.23,822.46 822.46,822.46" fill="#072334"/><rect x="897.2307692307693" y="747.6923076923077" width="74.76923076923077" height="74.76923076923077" fill="#10517a"/><rect x="897.23" y="747.69" width="37.38" height="37.38" fill="#072334"/><polygon points="934.61,747.69 934.61,785.07 897.23,785.07" fill="#072334"/><rect x="934.62" y="747.69" width="37.38" height="37.38" fill="#072334"/><polygon points="934.62,747.69 972,747.69 934.62,785.07" fill="#072334"/><rect x="897.23" y="785.08" width="37.38" height="37.38" fill="#072334"/><polygon points="897.23,785.08 934.61,785.08 934.61,822.46" fill="#072334"/><rect x="934.62" y="785.08" width="37.38" height="37.38" fill="#072334"/><polygon points="934.62,785.08 972,822.46 934.62,822.46" fill="#072334"/><rect x="972" y="747.6923076923077" width="74.76923076923077" height="74.76923076923077" fill="#10517a"/><rect x="972" y="747.69" width="37.38" height="37.38" fill="#072334"/><path d="M 972 747.69 A 37.38 37.38 0 0 1 1009.38 785.07 L 972 785.07" fill="#072334"/><rect x="1009.38" y="747.69" width="37.38" height="37.38" fill="#072334"/><path d="M 1009.38 785.07 A 37.38 37.38 0 0 1  1046.76 747.69 L 1046.76 785.07" fill="#072334"/><rect x="972" y="785.08" width="37.38" height="37.38" fill="#072334"/><path d="M 972 822.46 A 37.38 37.38 0 0 0 1009.38 785.08 L 972 785.08" fill="#072334"/><rect x="1009.38" y="785.08" width="37.38" height="37.38" fill="#072334"/><path d="M 1009.38 785.08 A 37.38 37.38 0 0 0 1046.76 822.46 L 1046.76 785.08" fill="#072334"/><rect x="1046.769230769231" y="747.6923076923077" width="74.76923076923077" height="74.76923076923077" fill="#10517a"/><rect x="1046.77" y="747.69" width="37.38" height="37.38" fill="#072334"/><circle cx="1065.46" cy="766.3800000000001" r="18.69" fill="#072334"/><rect x="1084.15" y="747.69" width="37.38" height="37.38" fill="#072334"/><rect x="1084.15" y="747.69" width="37.38" height="37.38" fill="#072334"/><rect x="1046.77" y="785.08" width="37.38" height="37.38" fill="#072334"/><circle cx="1065.46" cy="803.7700000000001" r="18.69" fill="#072334"/><rect x="1084.15" y="785.08" width="37.38" height="37.38" fill="#072334"/><rect x="1084.15" y="785.08" width="37.38" height="37.38" fill="#072334"/><rect x="0" y="822.46" width="74.77" height="74.77" fill="#072334"/><polygon points="0,822.46 74.77,822.46 0,897.23" fill="#072334"/><rect x="74.77" y="822.46" width="74.77" height="74.77" fill="#072334"/><polygon points="74.77,822.46 149.54,897.23 74.77,897.23" fill="#072334"/><rect x="149.54" y="822.46" width="74.77" height="74.77" fill="#072334"/><rect x="149.54" y="822.46" width="74.77" height="74.77" fill="#072334"/><rect x="224.31" y="822.46" width="74.77" height="74.77" fill="#072334"/><polygon points="299.08,822.46 299.08,897.23 224.31,897.23" fill="#072334"/><rect x="299.08" y="822.46" width="74.77" height="74.77" fill="#072334"/><path d="M 299.08 822.46 A 74.77 74.77 0 0 0 373.84999999999997 897.23 L 373.84999999999997 822.46" fill="#072334"/><rect x="373.85" y="822.46" width="74.77" height="74.77" fill="#072334"/><polygon points="448.62,822.46 448.62,897.23 373.85,897.23" fill="#072334"/><rect x="448.61538461538464" y="822.4615384615386" width="74.76923076923077" height="74.76923076923077" fill="#10517a"/><rect x="448.62" y="822.46" width="37.38" height="37.38" fill="#072334"/><polygon points="486,822.46 486,859.84 448.62,859.84" fill="#072334"/><rect x="486" y="822.46" width="37.38" height="37.38" fill="#072334"/><polygon points="486,822.46 523.38,859.84 486,859.84" fill="#072334"/><rect x="448.62" y="859.85" width="37.38" height="37.38" fill="#072334"/><polygon points="448.62,859.85 486,859.85 486,897.23" fill="#072334"/><rect x="486" y="859.85" width="37.38" height="37.38" fill="#072334"/><polygon points="486,859.85 523.38,859.85 486,897.23" fill="#072334"/><rect x="523.38" y="822.46" width="74.77" height="74.77" fill="#072334"/><polygon points="523.38,822.46 598.15,822.46 598.15,897.23" fill="#072334"/><rect x="598.15" y="822.46" width="74.77" height="74.77" fill="#072334"/><polygon points="598.15,822.46 672.92,897.23 598.15,897.23" fill="#072334"/><rect x="672.9230769230769" y="822.4615384615386" width="74.76923076923077" height="74.76923076923077" fill="#10517a"/><rect x="672.92" y="822.46" width="37.38" height="37.38" fill="#072334"/><path d="M 672.92 822.46 A 37.38 37.38 0 0 1 710.3 859.84 L 672.92 859.84" fill="#072334"/><rect x="710.31" y="822.46" width="37.38" height="37.38" fill="#072334"/><path d="M 710.31 859.84 A 37.38 37.38 0 0 1  747.6899999999999 822.46 L 747.6899999999999 859.84" fill="#072334"/><rect x="672.92" y="859.85" width="37.38" height="37.38" fill="#072334"/><path d="M 672.92 897.23 A 37.38 37.38 0 0 0 710.3 859.85 L 672.92 859.85" fill="#072334"/><rect x="710.31" y="859.85" width="37.38" height="37.38" fill="#072334"/><path d="M 710.31 859.85 A 37.38 37.38 0 0 0 747.6899999999999 897.23 L 747.6899999999999 859.85" fill="#072334"/><rect x="747.6923076923077" y="822.4615384615386" width="74.76923076923077" height="74.76923076923077" fill="#10517a"/><rect x="747.69" y="822.46" width="37.38" height="37.38" fill="#072334"/><path d="M 747.69 859.84 A 37.38 37.38 0 0 1  785.07 822.46 L 785.07 859.84" fill="#072334"/><rect x="785.08" y="822.46" width="37.38" height="37.38" fill="#072334"/><path d="M 785.08 822.46 A 37.38 37.38 0 0 1 822.46 859.84 L 785.08 859.84" fill="#072334"/><rect x="747.69" y="859.85" width="37.38" height="37.38" fill="#072334"/><path d="M 747.69 859.85 A 37.38 37.38 0 0 0 785.07 897.23 L 785.07 859.85" fill="#072334"/><rect x="785.08" y="859.85" width="37.38" height="37.38" fill="#072334"/><path d="M 785.08 897.23 A 37.38 37.38 0 0 0 822.46 859.85 L 785.08 859.85" fill="#072334"/><rect x="822.4615384615386" y="822.4615384615386" width="74.76923076923077" height="74.76923076923077" fill="#10517a"/><rect x="822.46" y="822.46" width="37.38" height="37.38" fill="#072334"/><polygon points="859.84,822.46 859.84,859.84 822.46,859.84" fill="#072334"/><rect x="859.85" y="822.46" width="37.38" height="37.38" fill="#072334"/><polygon points="859.85,822.46 897.23,859.84 859.85,859.84" fill="#072334"/><rect x="822.46" y="859.85" width="37.38" height="37.38" fill="#072334"/><polygon points="822.46,859.85 859.84,859.85 822.46,897.23" fill="#072334"/><rect x="859.85" y="859.85" width="37.38" height="37.38" fill="#072334"/><polygon points="859.85,859.85 897.23,859.85 897.23,897.23" fill="#072334"/><rect x="897.23" y="822.46" width="74.77" height="74.77" fill="#072334"/><path d="M 897.23 822.46 A 74.77 74.77 0 0 0 972 897.23 L 972 822.46" fill="#072334"/><rect x="972" y="822.46" width="74.77" height="74.77" fill="#072334"/><polygon points="1046.77,822.46 1046.77,897.23 972,897.23" fill="#072334"/><rect x="1046.769230769231" y="822.4615384615386" width="74.76923076923077" height="74.76923076923077" fill="#10517a"/><rect x="1046.77" y="822.46" width="37.38" height="37.38" fill="#072334"/><path d="M 1046.77 822.46 A 37.38 37.38 0 0 0 1084.15 859.84 L 1084.15 822.46" fill="#072334"/><rect x="1084.15" y="822.46" width="37.38" height="37.38" fill="#072334"/><path d="M 1084.15 859.84 A 37.38 37.38 0 0 0 1121.5300000000002 822.46 L 1084.15 822.46" fill="#072334"/><rect x="1046.77" y="859.85" width="37.38" height="37.38" fill="#072334"/><path d="M 1046.77 897.23 A 37.38 37.38 0 0 1  1084.15 859.85 L 1084.15 897.23" fill="#072334"/><rect x="1084.15" y="859.85" width="37.38" height="37.38" fill="#072334"/><path d="M 1084.15 859.85 A 37.38 37.38 0 0 1 1121.5300000000002 897.23 L 1084.15 897.23" fill="#072334"/><rect x="0" y="897.2307692307693" width="74.76923076923077" height="74.76923076923077" fill="#10517a"/><rect x="0" y="897.23" width="37.38" height="37.38" fill="#072334"/><polygon points="37.38,897.23 37.38,934.61 0,934.61" fill="#072334"/><rect x="37.38" y="897.23" width="37.38" height="37.38" fill="#072334"/><polygon points="37.38,897.23 74.76,934.61 37.38,934.61" fill="#072334"/><rect x="0" y="934.62" width="37.38" height="37.38" fill="#072334"/><polygon points="0,934.62 37.38,934.62 0,972" fill="#072334"/><rect x="37.38" y="934.62" width="37.38" height="37.38" fill="#072334"/><polygon points="37.38,934.62 74.76,934.62 74.76,972" fill="#072334"/><rect x="74.76923076923077" y="897.2307692307693" width="74.76923076923077" height="74.76923076923077" fill="#10517a"/><rect x="74.77" y="897.23" width="37.38" height="37.38" fill="#072334"/><path d="M 74.77 897.23 A 37.38 37.38 0 0 0 112.15 934.61 L 112.15 897.23" fill="#072334"/><rect x="112.15" y="897.23" width="37.38" height="37.38" fill="#072334"/><path d="M 112.15 934.61 A 37.38 37.38 0 0 0 149.53 897.23 L 112.15 897.23" fill="#072334"/><rect x="74.77" y="934.62" width="37.38" height="37.38" fill="#072334"/><path d="M 74.77 972 A 37.38 37.38 0 0 1  112.15 934.62 L 112.15 972" fill="#072334"/><rect x="112.15" y="934.62" width="37.38" height="37.38" fill="#072334"/><path d="M 112.15 934.62 A 37.38 37.38 0 0 1 149.53 972 L 112.15 972" fill="#072334"/><rect x="149.54" y="897.23" width="74.77" height="74.77" fill="#072334"/><path d="M 149.54 972 A 74.77 74.77 0 0 1  224.31 897.23 L 149.54 972 A 74.77 74.77 0 0 0 224.31 897.23" fill="#072334"/><rect x="224.31" y="897.23" width="74.77" height="74.77" fill="#072334"/><rect x="224.31" y="897.23" width="74.77" height="74.77" fill="#072334"/><rect x="299.08" y="897.23" width="74.77" height="74.77" fill="#072334"/><path d="M 299.08 972 A 74.77 74.77 0 0 1  373.84999999999997 897.23 L 299.08 972 A 74.77 74.77 0 0 0 373.84999999999997 897.23" fill="#072334"/><rect x="373.84615384615387" y="897.2307692307693" width="74.76923076923077" height="74.76923076923077" fill="#10517a"/><rect x="373.85" y="897.23" width="37.38" height="37.38" fill="#072334"/><path d="M 373.85 897.23 A 37.38 37.38 0 0 1 411.23 934.61 L 373.85 934.61" fill="#072334"/><rect x="411.23" y="897.23" width="37.38" height="37.38" fill="#072334"/><path d="M 411.23 934.61 A 37.38 37.38 0 0 1  448.61 897.23 L 448.61 934.61" fill="#072334"/><rect x="373.85" y="934.62" width="37.38" height="37.38" fill="#072334"/><path d="M 373.85 972 A 37.38 37.38 0 0 0 411.23 934.62 L 373.85 934.62" fill="#072334"/><rect x="411.23" y="934.62" width="37.38" height="37.38" fill="#072334"/><path d="M 411.23 934.62 A 37.38 37.38 0 0 0 448.61 972 L 448.61 934.62" fill="#072334"/><rect x="448.61538461538464" y="897.2307692307693" width="74.76923076923077" height="74.76923076923077" fill="#10517a"/><rect x="448.62" y="897.23" width="37.38" height="37.38" fill="#072334"/><polygon points="486,897.23 486,934.61 448.62,934.61" fill="#072334"/><rect x="486" y="897.23" width="37.38" height="37.38" fill="#072334"/><polygon points="486,897.23 523.38,934.61 486,934.61" fill="#072334"/><rect x="448.62" y="934.62" width="37.38" height="37.38" fill="#072334"/><polygon points="448.62,934.62 486,934.62 486,972" fill="#072334"/><rect x="486" y="934.62" width="37.38" height="37.38" fill="#072334"/><polygon points="486,934.62 523.38,934.62 486,972" fill="#072334"/><rect x="523.38" y="897.23" width="74.77" height="74.77" fill="#072334"/><path d="M 523.38 897.23 A 74.77 74.77 0 0 1  598.15 972 L 523.38 897.23 A 74.77 74.77 0 0 0 598.15 972" fill="#072334"/><rect x="598.15" y="897.23" width="74.77" height="74.77" fill="#072334"/><path d="M 598.15 972 A 74.77 74.77 0 0 1  672.92 897.23 L 598.15 972 A 74.77 74.77 0 0 0 672.92 897.23" fill="#072334"/><rect x="672.9230769230769" y="897.2307692307693" width="74.76923076923077" height="74.76923076923077" fill="#10517a"/><rect x="672.92" y="897.23" width="37.38" height="37.38" fill="#072334"/><polygon points="710.3,897.23 710.3,934.61 672.92,934.61" fill="#072334"/><rect x="710.31" y="897.23" width="37.38" height="37.38" fill="#072334"/><polygon points="710.31,897.23 747.6899999999999,934.61 710.31,934.61" fill="#072334"/><rect x="672.92" y="934.62" width="37.38" height="37.38" fill="#072334"/><polygon points="672.92,934.62 710.3,934.62 710.3,972" fill="#072334"/><rect x="710.31" y="934.62" width="37.38" height="37.38" fill="#072334"/><polygon points="710.31,934.62 747.6899999999999,934.62 710.31,972" fill="#072334"/><rect x="747.6923076923077" y="897.2307692307693" width="74.76923076923077" height="74.76923076923077" fill="#10517a"/><rect x="747.69" y="897.23" width="37.38" height="37.38" fill="#072334"/><circle cx="766.3800000000001" cy="915.9200000000001" r="18.69" fill="#072334"/><rect x="785.08" y="897.23" width="37.38" height="37.38" fill="#072334"/><rect x="785.08" y="897.23" width="37.38" height="37.38" fill="#072334"/><rect x="747.69" y="934.62" width="37.38" height="37.38" fill="#072334"/><circle cx="766.3800000000001" cy="953.3100000000001" r="18.69" fill="#072334"/><rect x="785.08" y="934.62" width="37.38" height="37.38" fill="#072334"/><rect x="785.08" y="934.62" width="37.38" height="37.38" fill="#072334"/><rect x="822.4615384615386" y="897.2307692307693" width="74.76923076923077" height="74.76923076923077" fill="#10517a"/><rect x="822.46" y="897.23" width="37.38" height="37.38" fill="#072334"/><polygon points="859.84,897.23 859.84,934.61 822.46,934.61" fill="#072334"/><rect x="859.85" y="897.23" width="37.38" height="37.38" fill="#072334"/><polygon points="859.85,897.23 897.23,934.61 859.85,934.61" fill="#072334"/><rect x="822.46" y="934.62" width="37.38" height="37.38" fill="#072334"/><polygon points="822.46,934.62 859.84,934.62 822.46,972" fill="#072334"/><rect x="859.85" y="934.62" width="37.38" height="37.38" fill="#072334"/><polygon points="859.85,934.62 897.23,934.62 897.23,972" fill="#072334"/><rect x="897.2307692307693" y="897.2307692307693" width="74.76923076923077" height="74.76923076923077" fill="#10517a"/><rect x="897.23" y="897.23" width="37.38" height="37.38" fill="#072334"/><path d="M 897.23 934.61 A 37.38 37.38 0 0 0 934.61 897.23 L 897.23 897.23" fill="#072334"/><rect x="934.62" y="897.23" width="37.38" height="37.38" fill="#072334"/><path d="M 934.62 897.23 A 37.38 37.38 0 0 0 972 934.61 L 972 897.23" fill="#072334"/><rect x="897.23" y="934.62" width="37.38" height="37.38" fill="#072334"/><path d="M 897.23 934.62 A 37.38 37.38 0 0 1 934.61 972 L 897.23 972" fill="#072334"/><rect x="934.62" y="934.62" width="37.38" height="37.38" fill="#072334"/><path d="M 934.62 972 A 37.38 37.38 0 0 1  972 934.62 L 972 972" fill="#072334"/><rect x="972" y="897.2307692307693" width="74.76923076923077" height="74.76923076923077" fill="#10517a"/><rect x="972" y="897.23" width="37.38" height="37.38" fill="#072334"/><polygon points="1009.38,897.23 1009.38,934.61 972,934.61" fill="#072334"/><rect x="1009.38" y="897.23" width="37.38" height="37.38" fill="#072334"/><polygon points="1009.38,897.23 1046.76,934.61 1009.38,934.61" fill="#072334"/><rect x="972" y="934.62" width="37.38" height="37.38" fill="#072334"/><polygon points="972,934.62 1009.38,934.62 1009.38,972" fill="#072334"/><rect x="1009.38" y="934.62" width="37.38" height="37.38" fill="#072334"/><polygon points="1009.38,934.62 1046.76,934.62 1009.38,972" fill="#072334"/><rect x="1046.769230769231" y="897.2307692307693" width="74.76923076923077" height="74.76923076923077" fill="#10517a"/><rect x="1046.77" y="897.23" width="37.38" height="37.38" fill="#072334"/><polygon points="1084.15,897.23 1084.15,934.61 1046.77,934.61" fill="#072334"/><rect x="1084.15" y="897.23" width="37.38" height="37.38" fill="#072334"/><polygon points="1084.15,897.23 1121.5300000000002,934.61 1084.15,934.61" fill="#072334"/><rect x="1046.77" y="934.62" width="37.38" height="37.38" fill="#072334"/><polygon points="1046.77,934.62 1084.15,934.62 1084.15,972" fill="#072334"/><rect x="1084.15" y="934.62" width="37.38" height="37.38" fill="#072334"/><polygon points="1084.15,934.62 1121.5300000000002,934.62 1084.15,972" fill="#072334"/></g></svg>